<?xml version="1.0" encoding="UTF-8" standalone="no"?>
<svg xmlns="http://www.w3.org/2000/svg" xmlns:xlink="http://www.w3.org/1999/xlink"  version="1.2" baseProfile="tiny">
<title>Qt Svg Document</title>
<desc>Generated with Qt</desc>
<defs>
</defs>
<g fill="none" stroke="black" stroke-width="1" fill-rule="evenodd" stroke-linecap="square" stroke-linejoin="bevel" >

<g fill="none" stroke="#000000" stroke-opacity="1" stroke-width="1" stroke-linecap="square" stroke-linejoin="bevel" transform="matrix(1,0,0,1,0,0)"
font-family="DejaVu Sans" font-size="14" font-weight="700" font-style="normal" 
>
<text fill="#000000" fill-opacity="1" stroke="none" xml:space="preserve" x="611.5" y="14" font-family="DejaVu Sans" font-size="14" font-weight="700" font-style="normal" 
 >Lower part of Figure1B</text>
</g>

<g fill="none" stroke="#000000" stroke-opacity="1" stroke-width="1" stroke-linecap="square" stroke-linejoin="bevel" transform="matrix(1,0,0,1,0,0)"
font-family="DejaVu Sans" font-size="14" font-weight="700" font-style="normal" 
>
</g>

<g fill="none" stroke="#000000" stroke-opacity="1" stroke-width="1" stroke-linecap="square" stroke-linejoin="bevel" transform="matrix(1,0,0,1,0,0)"
font-family="DejaVu Sans" font-size="14" font-weight="700" font-style="normal" 
>
</g>

<g fill="none" stroke="#000000" stroke-opacity="1" stroke-width="1" stroke-linecap="square" stroke-linejoin="bevel" transform="matrix(1,0,0,1,0,0)"
font-family="Sans Serif" font-size="9" font-weight="400" font-style="normal" 
>
</g>

<g fill="none" stroke="#ff0000" stroke-opacity="1" stroke-width="2" stroke-linecap="square" stroke-linejoin="bevel" transform="matrix(1,0,0,1,0,0)"
font-family="Sans Serif" font-size="9" font-weight="400" font-style="normal" 
>
<polyline fill="none" vector-effect="non-scaling-stroke" points="618,719 623,719 " />
</g>

<g fill="none" stroke="#000000" stroke-opacity="1" stroke-width="1" stroke-linecap="square" stroke-linejoin="bevel" transform="matrix(1,0,0,1,0,0)"
font-family="Sans Serif" font-size="9" font-weight="400" font-style="normal" 
>
<text fill="#000000" fill-opacity="1" stroke="none" xml:space="preserve" x="626" y="723" font-family="Sans Serif" font-size="9" font-weight="400" font-style="normal" 
 >MPFn_1</text>
</g>

<g fill="none" stroke="#000000" stroke-opacity="1" stroke-width="1" stroke-linecap="square" stroke-linejoin="bevel" transform="matrix(1,0,0,1,0,0)"
font-family="Sans Serif" font-size="9" font-weight="400" font-style="normal" 
>
</g>

<g fill="none" stroke="#000000" stroke-opacity="1" stroke-width="1" stroke-linecap="square" stroke-linejoin="bevel" transform="matrix(1,0,0,1,0,0)"
font-family="Sans Serif" font-size="9" font-weight="400" font-style="normal" 
>
</g>

<g fill="none" stroke="#000000" stroke-opacity="1" stroke-width="1" stroke-linecap="square" stroke-linejoin="bevel" transform="matrix(1,0,0,1,0,0)"
font-family="DejaVu Sans" font-size="14" font-weight="700" font-style="normal" 
>
</g>

<g fill="none" stroke="#000000" stroke-opacity="1" stroke-width="1" stroke-linecap="square" stroke-linejoin="bevel" transform="matrix(1,0,0,1,0,0)"
font-family="DejaVu Sans" font-size="14" font-weight="700" font-style="normal" 
>
</g>

<g fill="none" stroke="#000000" stroke-opacity="1" stroke-width="1" stroke-linecap="square" stroke-linejoin="bevel" transform="matrix(1,0,0,1,0,0)"
font-family="Sans Serif" font-size="9" font-weight="400" font-style="normal" 
>
</g>

<g fill="none" stroke="#0000ff" stroke-opacity="1" stroke-width="2" stroke-linecap="square" stroke-linejoin="bevel" transform="matrix(1,0,0,1,0,0)"
font-family="Sans Serif" font-size="9" font-weight="400" font-style="normal" 
>
<polyline fill="none" vector-effect="non-scaling-stroke" points="675,719 680,719 " />
</g>

<g fill="none" stroke="#000000" stroke-opacity="1" stroke-width="1" stroke-linecap="square" stroke-linejoin="bevel" transform="matrix(1,0,0,1,0,0)"
font-family="Sans Serif" font-size="9" font-weight="400" font-style="normal" 
>
<text fill="#000000" fill-opacity="1" stroke="none" xml:space="preserve" x="683" y="723" font-family="Sans Serif" font-size="9" font-weight="400" font-style="normal" 
 >StgPn_1</text>
</g>

<g fill="none" stroke="#000000" stroke-opacity="1" stroke-width="1" stroke-linecap="square" stroke-linejoin="bevel" transform="matrix(1,0,0,1,0,0)"
font-family="Sans Serif" font-size="9" font-weight="400" font-style="normal" 
>
</g>

<g fill="none" stroke="#000000" stroke-opacity="1" stroke-width="1" stroke-linecap="square" stroke-linejoin="bevel" transform="matrix(1,0,0,1,0,0)"
font-family="Sans Serif" font-size="9" font-weight="400" font-style="normal" 
>
</g>

<g fill="none" stroke="#000000" stroke-opacity="1" stroke-width="1" stroke-linecap="square" stroke-linejoin="bevel" transform="matrix(1,0,0,1,0,0)"
font-family="DejaVu Sans" font-size="14" font-weight="700" font-style="normal" 
>
</g>

<g fill="none" stroke="#000000" stroke-opacity="1" stroke-width="1" stroke-linecap="square" stroke-linejoin="bevel" transform="matrix(1,0,0,1,0,0)"
font-family="DejaVu Sans" font-size="14" font-weight="700" font-style="normal" 
>
</g>

<g fill="none" stroke="#000000" stroke-opacity="1" stroke-width="1" stroke-linecap="square" stroke-linejoin="bevel" transform="matrix(1,0,0,1,0,0)"
font-family="Sans Serif" font-size="9" font-weight="400" font-style="normal" 
>
</g>

<g fill="none" stroke="#00e600" stroke-opacity="1" stroke-width="2" stroke-linecap="square" stroke-linejoin="bevel" transform="matrix(1,0,0,1,0,0)"
font-family="Sans Serif" font-size="9" font-weight="400" font-style="normal" 
>
<polyline fill="none" vector-effect="non-scaling-stroke" points="735,719 740,719 " />
</g>

<g fill="none" stroke="#000000" stroke-opacity="1" stroke-width="1" stroke-linecap="square" stroke-linejoin="bevel" transform="matrix(1,0,0,1,0,0)"
font-family="Sans Serif" font-size="9" font-weight="400" font-style="normal" 
>
<text fill="#000000" fill-opacity="1" stroke="none" xml:space="preserve" x="743" y="723" font-family="Sans Serif" font-size="9" font-weight="400" font-style="normal" 
 >Wee1n_1</text>
</g>

<g fill="none" stroke="#000000" stroke-opacity="1" stroke-width="1" stroke-linecap="square" stroke-linejoin="bevel" transform="matrix(1,0,0,1,0,0)"
font-family="Sans Serif" font-size="9" font-weight="400" font-style="normal" 
>
</g>

<g fill="none" stroke="#000000" stroke-opacity="1" stroke-width="1" stroke-linecap="square" stroke-linejoin="bevel" transform="matrix(1,0,0,1,0,0)"
font-family="Sans Serif" font-size="9" font-weight="400" font-style="normal" 
>
</g>

<g fill="none" stroke="#000000" stroke-opacity="1" stroke-width="1" stroke-linecap="square" stroke-linejoin="bevel" transform="matrix(1,0,0,1,0,0)"
font-family="DejaVu Sans" font-size="14" font-weight="700" font-style="normal" 
>
</g>

<g fill="none" stroke="#000000" stroke-opacity="1" stroke-width="1" stroke-linecap="square" stroke-linejoin="bevel" transform="matrix(0,-1,1,0,0,675)"
font-family="DejaVu Sans" font-size="10" font-weight="400" font-style="normal" 
>
</g>

<g fill="none" stroke="#000000" stroke-opacity="1" stroke-width="1" stroke-linecap="square" stroke-linejoin="bevel" transform="matrix(0,-1,1,0,0,675)"
font-family="DejaVu Sans" font-size="12" font-weight="700" font-style="normal" 
>
<text fill="#000000" fill-opacity="1" stroke="none" xml:space="preserve" x="311" y="11" font-family="DejaVu Sans" font-size="12" font-weight="700" font-style="normal" 
 >mol/l</text>
</g>

<g fill="none" stroke="#000000" stroke-opacity="1" stroke-width="1" stroke-linecap="square" stroke-linejoin="bevel" transform="matrix(0,-1,1,0,0,675)"
font-family="DejaVu Sans" font-size="10" font-weight="400" font-style="normal" 
>
</g>

<g fill="none" stroke="#000000" stroke-opacity="1" stroke-width="1" stroke-linecap="square" stroke-linejoin="bevel" transform="matrix(1,0,0,1,0,0)"
font-family="DejaVu Sans" font-size="14" font-weight="700" font-style="normal" 
>
</g>

<g fill="none" stroke="#000000" stroke-opacity="1" stroke-width="1" stroke-linecap="square" stroke-linejoin="bevel" transform="matrix(1,0,0,1,0,0)"
font-family="DejaVu Sans" font-size="10" font-weight="400" font-style="normal" 
>
</g>

<g fill="none" stroke="#000000" stroke-opacity="1" stroke-width="1" stroke-linecap="square" stroke-linejoin="bevel" transform="matrix(1,0,0,1,24,667)"
font-family="DejaVu Sans" font-size="10" font-weight="400" font-style="normal" 
>
<text fill="#000000" fill-opacity="1" stroke="none" xml:space="preserve" x="0" y="7" font-family="DejaVu Sans" font-size="10" font-weight="400" font-style="normal" 
 >0</text>
</g>

<g fill="none" stroke="#000000" stroke-opacity="1" stroke-width="1" stroke-linecap="square" stroke-linejoin="bevel" transform="matrix(1,0,0,1,24,667)"
font-family="DejaVu Sans" font-size="10" font-weight="400" font-style="normal" 
>
</g>

<g fill="none" stroke="#000000" stroke-opacity="1" stroke-width="1" stroke-linecap="square" stroke-linejoin="bevel" transform="matrix(1,0,0,1,0,0)"
font-family="DejaVu Sans" font-size="10" font-weight="400" font-style="normal" 
>
</g>

<g fill="none" stroke="#000000" stroke-opacity="1" stroke-width="1" stroke-linecap="square" stroke-linejoin="bevel" transform="matrix(1,0,0,1,15,575)"
font-family="DejaVu Sans" font-size="10" font-weight="400" font-style="normal" 
>
<text fill="#000000" fill-opacity="1" stroke="none" xml:space="preserve" x="0" y="7" font-family="DejaVu Sans" font-size="10" font-weight="400" font-style="normal" 
 >0.2</text>
</g>

<g fill="none" stroke="#000000" stroke-opacity="1" stroke-width="1" stroke-linecap="square" stroke-linejoin="bevel" transform="matrix(1,0,0,1,15,575)"
font-family="DejaVu Sans" font-size="10" font-weight="400" font-style="normal" 
>
</g>

<g fill="none" stroke="#000000" stroke-opacity="1" stroke-width="1" stroke-linecap="square" stroke-linejoin="bevel" transform="matrix(1,0,0,1,0,0)"
font-family="DejaVu Sans" font-size="10" font-weight="400" font-style="normal" 
>
</g>

<g fill="none" stroke="#000000" stroke-opacity="1" stroke-width="1" stroke-linecap="square" stroke-linejoin="bevel" transform="matrix(1,0,0,1,15,483)"
font-family="DejaVu Sans" font-size="10" font-weight="400" font-style="normal" 
>
<text fill="#000000" fill-opacity="1" stroke="none" xml:space="preserve" x="0" y="7" font-family="DejaVu Sans" font-size="10" font-weight="400" font-style="normal" 
 >0.4</text>
</g>

<g fill="none" stroke="#000000" stroke-opacity="1" stroke-width="1" stroke-linecap="square" stroke-linejoin="bevel" transform="matrix(1,0,0,1,15,483)"
font-family="DejaVu Sans" font-size="10" font-weight="400" font-style="normal" 
>
</g>

<g fill="none" stroke="#000000" stroke-opacity="1" stroke-width="1" stroke-linecap="square" stroke-linejoin="bevel" transform="matrix(1,0,0,1,0,0)"
font-family="DejaVu Sans" font-size="10" font-weight="400" font-style="normal" 
>
</g>

<g fill="none" stroke="#000000" stroke-opacity="1" stroke-width="1" stroke-linecap="square" stroke-linejoin="bevel" transform="matrix(1,0,0,1,15,391)"
font-family="DejaVu Sans" font-size="10" font-weight="400" font-style="normal" 
>
<text fill="#000000" fill-opacity="1" stroke="none" xml:space="preserve" x="0" y="7" font-family="DejaVu Sans" font-size="10" font-weight="400" font-style="normal" 
 >0.6</text>
</g>

<g fill="none" stroke="#000000" stroke-opacity="1" stroke-width="1" stroke-linecap="square" stroke-linejoin="bevel" transform="matrix(1,0,0,1,15,391)"
font-family="DejaVu Sans" font-size="10" font-weight="400" font-style="normal" 
>
</g>

<g fill="none" stroke="#000000" stroke-opacity="1" stroke-width="1" stroke-linecap="square" stroke-linejoin="bevel" transform="matrix(1,0,0,1,0,0)"
font-family="DejaVu Sans" font-size="10" font-weight="400" font-style="normal" 
>
</g>

<g fill="none" stroke="#000000" stroke-opacity="1" stroke-width="1" stroke-linecap="square" stroke-linejoin="bevel" transform="matrix(1,0,0,1,15,298)"
font-family="DejaVu Sans" font-size="10" font-weight="400" font-style="normal" 
>
<text fill="#000000" fill-opacity="1" stroke="none" xml:space="preserve" x="0" y="7" font-family="DejaVu Sans" font-size="10" font-weight="400" font-style="normal" 
 >0.8</text>
</g>

<g fill="none" stroke="#000000" stroke-opacity="1" stroke-width="1" stroke-linecap="square" stroke-linejoin="bevel" transform="matrix(1,0,0,1,15,298)"
font-family="DejaVu Sans" font-size="10" font-weight="400" font-style="normal" 
>
</g>

<g fill="none" stroke="#000000" stroke-opacity="1" stroke-width="1" stroke-linecap="square" stroke-linejoin="bevel" transform="matrix(1,0,0,1,0,0)"
font-family="DejaVu Sans" font-size="10" font-weight="400" font-style="normal" 
>
</g>

<g fill="none" stroke="#000000" stroke-opacity="1" stroke-width="1" stroke-linecap="square" stroke-linejoin="bevel" transform="matrix(1,0,0,1,24,206)"
font-family="DejaVu Sans" font-size="10" font-weight="400" font-style="normal" 
>
<text fill="#000000" fill-opacity="1" stroke="none" xml:space="preserve" x="0" y="7" font-family="DejaVu Sans" font-size="10" font-weight="400" font-style="normal" 
 >1</text>
</g>

<g fill="none" stroke="#000000" stroke-opacity="1" stroke-width="1" stroke-linecap="square" stroke-linejoin="bevel" transform="matrix(1,0,0,1,24,206)"
font-family="DejaVu Sans" font-size="10" font-weight="400" font-style="normal" 
>
</g>

<g fill="none" stroke="#000000" stroke-opacity="1" stroke-width="1" stroke-linecap="square" stroke-linejoin="bevel" transform="matrix(1,0,0,1,0,0)"
font-family="DejaVu Sans" font-size="10" font-weight="400" font-style="normal" 
>
</g>

<g fill="none" stroke="#000000" stroke-opacity="1" stroke-width="1" stroke-linecap="square" stroke-linejoin="bevel" transform="matrix(1,0,0,1,15,114)"
font-family="DejaVu Sans" font-size="10" font-weight="400" font-style="normal" 
>
<text fill="#000000" fill-opacity="1" stroke="none" xml:space="preserve" x="0" y="7" font-family="DejaVu Sans" font-size="10" font-weight="400" font-style="normal" 
 >1.2</text>
</g>

<g fill="none" stroke="#000000" stroke-opacity="1" stroke-width="1" stroke-linecap="square" stroke-linejoin="bevel" transform="matrix(1,0,0,1,15,114)"
font-family="DejaVu Sans" font-size="10" font-weight="400" font-style="normal" 
>
</g>

<g fill="none" stroke="#000000" stroke-opacity="1" stroke-width="1" stroke-linecap="square" stroke-linejoin="bevel" transform="matrix(1,0,0,1,0,0)"
font-family="DejaVu Sans" font-size="10" font-weight="400" font-style="normal" 
>
</g>

<g fill="none" stroke="#000000" stroke-opacity="1" stroke-width="1" stroke-linecap="square" stroke-linejoin="bevel" transform="matrix(1,0,0,1,15,22)"
font-family="DejaVu Sans" font-size="10" font-weight="400" font-style="normal" 
>
<text fill="#000000" fill-opacity="1" stroke="none" xml:space="preserve" x="0" y="7" font-family="DejaVu Sans" font-size="10" font-weight="400" font-style="normal" 
 >1.4</text>
</g>

<g fill="none" stroke="#000000" stroke-opacity="1" stroke-width="1" stroke-linecap="square" stroke-linejoin="bevel" transform="matrix(1,0,0,1,15,22)"
font-family="DejaVu Sans" font-size="10" font-weight="400" font-style="normal" 
>
</g>

<g fill="none" stroke="#000000" stroke-opacity="1" stroke-width="1" stroke-linecap="square" stroke-linejoin="bevel" transform="matrix(1,0,0,1,0,0)"
font-family="DejaVu Sans" font-size="10" font-weight="400" font-style="normal" 
>
</g>

<g fill="none" stroke="#000000" stroke-opacity="1" stroke-width="1" stroke-linecap="square" stroke-linejoin="bevel" transform="matrix(1,0,0,1,0,0)"
font-family="DejaVu Sans" font-size="10" font-weight="400" font-style="normal" 
>
<polyline fill="none" vector-effect="non-scaling-stroke" points="42,648 39,648 " />
<polyline fill="none" vector-effect="non-scaling-stroke" points="42,602 39,602 " />
<polyline fill="none" vector-effect="non-scaling-stroke" points="42,556 39,556 " />
<polyline fill="none" vector-effect="non-scaling-stroke" points="42,510 39,510 " />
<polyline fill="none" vector-effect="non-scaling-stroke" points="42,464 39,464 " />
<polyline fill="none" vector-effect="non-scaling-stroke" points="42,418 39,418 " />
<polyline fill="none" vector-effect="non-scaling-stroke" points="42,372 39,372 " />
<polyline fill="none" vector-effect="non-scaling-stroke" points="42,325 39,325 " />
<polyline fill="none" vector-effect="non-scaling-stroke" points="42,279 39,279 " />
<polyline fill="none" vector-effect="non-scaling-stroke" points="42,233 39,233 " />
<polyline fill="none" vector-effect="non-scaling-stroke" points="42,187 39,187 " />
<polyline fill="none" vector-effect="non-scaling-stroke" points="42,141 39,141 " />
<polyline fill="none" vector-effect="non-scaling-stroke" points="42,95 39,95 " />
<polyline fill="none" vector-effect="non-scaling-stroke" points="42,49 39,49 " />
<polyline fill="none" vector-effect="non-scaling-stroke" points="42,625 37,625 " />
<polyline fill="none" vector-effect="non-scaling-stroke" points="42,533 37,533 " />
<polyline fill="none" vector-effect="non-scaling-stroke" points="42,441 37,441 " />
<polyline fill="none" vector-effect="non-scaling-stroke" points="42,348 37,348 " />
<polyline fill="none" vector-effect="non-scaling-stroke" points="42,256 37,256 " />
<polyline fill="none" vector-effect="non-scaling-stroke" points="42,164 37,164 " />
<polyline fill="none" vector-effect="non-scaling-stroke" points="42,72 37,72 " />
<polyline fill="none" vector-effect="non-scaling-stroke" points="42,671 36,671 " />
<polyline fill="none" vector-effect="non-scaling-stroke" points="42,579 36,579 " />
<polyline fill="none" vector-effect="non-scaling-stroke" points="42,487 36,487 " />
<polyline fill="none" vector-effect="non-scaling-stroke" points="42,395 36,395 " />
<polyline fill="none" vector-effect="non-scaling-stroke" points="42,302 36,302 " />
<polyline fill="none" vector-effect="non-scaling-stroke" points="42,210 36,210 " />
<polyline fill="none" vector-effect="non-scaling-stroke" points="42,118 36,118 " />
<polyline fill="none" vector-effect="non-scaling-stroke" points="42,26 36,26 " />
</g>

<g fill="none" stroke="#000000" stroke-opacity="1" stroke-width="1" stroke-linecap="square" stroke-linejoin="bevel" transform="matrix(1,0,0,1,0,0)"
font-family="DejaVu Sans" font-size="10" font-weight="400" font-style="normal" 
>
<polyline fill="none" vector-effect="non-scaling-stroke" points="42,26 42,671 " />
</g>

<g fill="none" stroke="#000000" stroke-opacity="1" stroke-width="1" stroke-linecap="square" stroke-linejoin="bevel" transform="matrix(1,0,0,1,0,0)"
font-family="DejaVu Sans" font-size="10" font-weight="400" font-style="normal" 
>
</g>

<g fill="none" stroke="#000000" stroke-opacity="1" stroke-width="1" stroke-linecap="square" stroke-linejoin="bevel" transform="matrix(1,0,0,1,0,0)"
font-family="DejaVu Sans" font-size="14" font-weight="700" font-style="normal" 
>
</g>

<g fill="none" stroke="#000000" stroke-opacity="1" stroke-width="1" stroke-linecap="square" stroke-linejoin="bevel" transform="matrix(1,0,0,1,44,675)"
font-family="DejaVu Sans" font-size="10" font-weight="400" font-style="normal" 
>
</g>

<g fill="none" stroke="#000000" stroke-opacity="1" stroke-width="1" stroke-linecap="square" stroke-linejoin="bevel" transform="matrix(1,0,0,1,44,675)"
font-family="DejaVu Sans" font-size="12" font-weight="700" font-style="normal" 
>
<text fill="#000000" fill-opacity="1" stroke="none" xml:space="preserve" x="655" y="33" font-family="DejaVu Sans" font-size="12" font-weight="700" font-style="normal" 
 >s</text>
</g>

<g fill="none" stroke="#000000" stroke-opacity="1" stroke-width="1" stroke-linecap="square" stroke-linejoin="bevel" transform="matrix(1,0,0,1,44,675)"
font-family="DejaVu Sans" font-size="10" font-weight="400" font-style="normal" 
>
</g>

<g fill="none" stroke="#000000" stroke-opacity="1" stroke-width="1" stroke-linecap="square" stroke-linejoin="bevel" transform="matrix(1,0,0,1,0,0)"
font-family="DejaVu Sans" font-size="14" font-weight="700" font-style="normal" 
>
</g>

<g fill="none" stroke="#000000" stroke-opacity="1" stroke-width="1" stroke-linecap="square" stroke-linejoin="bevel" transform="matrix(1,0,0,1,0,0)"
font-family="DejaVu Sans" font-size="10" font-weight="400" font-style="normal" 
>
</g>

<g fill="none" stroke="#000000" stroke-opacity="1" stroke-width="1" stroke-linecap="square" stroke-linejoin="bevel" transform="matrix(1,0,0,1,43,685)"
font-family="DejaVu Sans" font-size="10" font-weight="400" font-style="normal" 
>
<text fill="#000000" fill-opacity="1" stroke="none" xml:space="preserve" x="0" y="7" font-family="DejaVu Sans" font-size="10" font-weight="400" font-style="normal" 
 >0</text>
</g>

<g fill="none" stroke="#000000" stroke-opacity="1" stroke-width="1" stroke-linecap="square" stroke-linejoin="bevel" transform="matrix(1,0,0,1,43,685)"
font-family="DejaVu Sans" font-size="10" font-weight="400" font-style="normal" 
>
</g>

<g fill="none" stroke="#000000" stroke-opacity="1" stroke-width="1" stroke-linecap="square" stroke-linejoin="bevel" transform="matrix(1,0,0,1,0,0)"
font-family="DejaVu Sans" font-size="10" font-weight="400" font-style="normal" 
>
</g>

<g fill="none" stroke="#000000" stroke-opacity="1" stroke-width="1" stroke-linecap="square" stroke-linejoin="bevel" transform="matrix(1,0,0,1,301,685)"
font-family="DejaVu Sans" font-size="10" font-weight="400" font-style="normal" 
>
<text fill="#000000" fill-opacity="1" stroke="none" xml:space="preserve" x="0" y="7" font-family="DejaVu Sans" font-size="10" font-weight="400" font-style="normal" 
 >50</text>
</g>

<g fill="none" stroke="#000000" stroke-opacity="1" stroke-width="1" stroke-linecap="square" stroke-linejoin="bevel" transform="matrix(1,0,0,1,301,685)"
font-family="DejaVu Sans" font-size="10" font-weight="400" font-style="normal" 
>
</g>

<g fill="none" stroke="#000000" stroke-opacity="1" stroke-width="1" stroke-linecap="square" stroke-linejoin="bevel" transform="matrix(1,0,0,1,0,0)"
font-family="DejaVu Sans" font-size="10" font-weight="400" font-style="normal" 
>
</g>

<g fill="none" stroke="#000000" stroke-opacity="1" stroke-width="1" stroke-linecap="square" stroke-linejoin="bevel" transform="matrix(1,0,0,1,559,685)"
font-family="DejaVu Sans" font-size="10" font-weight="400" font-style="normal" 
>
<text fill="#000000" fill-opacity="1" stroke="none" xml:space="preserve" x="0" y="7" font-family="DejaVu Sans" font-size="10" font-weight="400" font-style="normal" 
 >100</text>
</g>

<g fill="none" stroke="#000000" stroke-opacity="1" stroke-width="1" stroke-linecap="square" stroke-linejoin="bevel" transform="matrix(1,0,0,1,559,685)"
font-family="DejaVu Sans" font-size="10" font-weight="400" font-style="normal" 
>
</g>

<g fill="none" stroke="#000000" stroke-opacity="1" stroke-width="1" stroke-linecap="square" stroke-linejoin="bevel" transform="matrix(1,0,0,1,0,0)"
font-family="DejaVu Sans" font-size="10" font-weight="400" font-style="normal" 
>
</g>

<g fill="none" stroke="#000000" stroke-opacity="1" stroke-width="1" stroke-linecap="square" stroke-linejoin="bevel" transform="matrix(1,0,0,1,820,685)"
font-family="DejaVu Sans" font-size="10" font-weight="400" font-style="normal" 
>
<text fill="#000000" fill-opacity="1" stroke="none" xml:space="preserve" x="0" y="7" font-family="DejaVu Sans" font-size="10" font-weight="400" font-style="normal" 
 >150</text>
</g>

<g fill="none" stroke="#000000" stroke-opacity="1" stroke-width="1" stroke-linecap="square" stroke-linejoin="bevel" transform="matrix(1,0,0,1,820,685)"
font-family="DejaVu Sans" font-size="10" font-weight="400" font-style="normal" 
>
</g>

<g fill="none" stroke="#000000" stroke-opacity="1" stroke-width="1" stroke-linecap="square" stroke-linejoin="bevel" transform="matrix(1,0,0,1,0,0)"
font-family="DejaVu Sans" font-size="10" font-weight="400" font-style="normal" 
>
</g>

<g fill="none" stroke="#000000" stroke-opacity="1" stroke-width="1" stroke-linecap="square" stroke-linejoin="bevel" transform="matrix(1,0,0,1,1081,685)"
font-family="DejaVu Sans" font-size="10" font-weight="400" font-style="normal" 
>
<text fill="#000000" fill-opacity="1" stroke="none" xml:space="preserve" x="0" y="7" font-family="DejaVu Sans" font-size="10" font-weight="400" font-style="normal" 
 >200</text>
</g>

<g fill="none" stroke="#000000" stroke-opacity="1" stroke-width="1" stroke-linecap="square" stroke-linejoin="bevel" transform="matrix(1,0,0,1,1081,685)"
font-family="DejaVu Sans" font-size="10" font-weight="400" font-style="normal" 
>
</g>

<g fill="none" stroke="#000000" stroke-opacity="1" stroke-width="1" stroke-linecap="square" stroke-linejoin="bevel" transform="matrix(1,0,0,1,0,0)"
font-family="DejaVu Sans" font-size="10" font-weight="400" font-style="normal" 
>
</g>

<g fill="none" stroke="#000000" stroke-opacity="1" stroke-width="1" stroke-linecap="square" stroke-linejoin="bevel" transform="matrix(1,0,0,1,1342,685)"
font-family="DejaVu Sans" font-size="10" font-weight="400" font-style="normal" 
>
<text fill="#000000" fill-opacity="1" stroke="none" xml:space="preserve" x="0" y="7" font-family="DejaVu Sans" font-size="10" font-weight="400" font-style="normal" 
 >250</text>
</g>

<g fill="none" stroke="#000000" stroke-opacity="1" stroke-width="1" stroke-linecap="square" stroke-linejoin="bevel" transform="matrix(1,0,0,1,1342,685)"
font-family="DejaVu Sans" font-size="10" font-weight="400" font-style="normal" 
>
</g>

<g fill="none" stroke="#000000" stroke-opacity="1" stroke-width="1" stroke-linecap="square" stroke-linejoin="bevel" transform="matrix(1,0,0,1,0,0)"
font-family="DejaVu Sans" font-size="10" font-weight="400" font-style="normal" 
>
</g>

<g fill="none" stroke="#000000" stroke-opacity="1" stroke-width="1" stroke-linecap="square" stroke-linejoin="bevel" transform="matrix(1,0,0,1,0,0)"
font-family="DejaVu Sans" font-size="10" font-weight="400" font-style="normal" 
>
<polyline fill="none" vector-effect="non-scaling-stroke" points="99,677 99,680 " />
<polyline fill="none" vector-effect="non-scaling-stroke" points="151,677 151,680 " />
<polyline fill="none" vector-effect="non-scaling-stroke" points="204,677 204,680 " />
<polyline fill="none" vector-effect="non-scaling-stroke" points="256,677 256,680 " />
<polyline fill="none" vector-effect="non-scaling-stroke" points="360,677 360,680 " />
<polyline fill="none" vector-effect="non-scaling-stroke" points="412,677 412,680 " />
<polyline fill="none" vector-effect="non-scaling-stroke" points="465,677 465,680 " />
<polyline fill="none" vector-effect="non-scaling-stroke" points="517,677 517,680 " />
<polyline fill="none" vector-effect="non-scaling-stroke" points="621,677 621,680 " />
<polyline fill="none" vector-effect="non-scaling-stroke" points="673,677 673,680 " />
<polyline fill="none" vector-effect="non-scaling-stroke" points="726,677 726,680 " />
<polyline fill="none" vector-effect="non-scaling-stroke" points="778,677 778,680 " />
<polyline fill="none" vector-effect="non-scaling-stroke" points="882,677 882,680 " />
<polyline fill="none" vector-effect="non-scaling-stroke" points="934,677 934,680 " />
<polyline fill="none" vector-effect="non-scaling-stroke" points="987,677 987,680 " />
<polyline fill="none" vector-effect="non-scaling-stroke" points="1039,677 1039,680 " />
<polyline fill="none" vector-effect="non-scaling-stroke" points="1143,677 1143,680 " />
<polyline fill="none" vector-effect="non-scaling-stroke" points="1195,677 1195,680 " />
<polyline fill="none" vector-effect="non-scaling-stroke" points="1248,677 1248,680 " />
<polyline fill="none" vector-effect="non-scaling-stroke" points="1300,677 1300,680 " />
<polyline fill="none" vector-effect="non-scaling-stroke" points="47,677 47,683 " />
<polyline fill="none" vector-effect="non-scaling-stroke" points="308,677 308,683 " />
<polyline fill="none" vector-effect="non-scaling-stroke" points="569,677 569,683 " />
<polyline fill="none" vector-effect="non-scaling-stroke" points="830,677 830,683 " />
<polyline fill="none" vector-effect="non-scaling-stroke" points="1091,677 1091,683 " />
<polyline fill="none" vector-effect="non-scaling-stroke" points="1352,677 1352,683 " />
</g>

<g fill="none" stroke="#000000" stroke-opacity="1" stroke-width="1" stroke-linecap="square" stroke-linejoin="bevel" transform="matrix(1,0,0,1,0,0)"
font-family="DejaVu Sans" font-size="10" font-weight="400" font-style="normal" 
>
<polyline fill="none" vector-effect="non-scaling-stroke" points="47,677 1351,677 " />
</g>

<g fill="none" stroke="#000000" stroke-opacity="1" stroke-width="1" stroke-linecap="square" stroke-linejoin="bevel" transform="matrix(1,0,0,1,0,0)"
font-family="DejaVu Sans" font-size="10" font-weight="400" font-style="normal" 
>
</g>

<g fill="none" stroke="#000000" stroke-opacity="1" stroke-width="1" stroke-linecap="square" stroke-linejoin="bevel" transform="matrix(1,0,0,1,0,0)"
font-family="DejaVu Sans" font-size="14" font-weight="700" font-style="normal" 
>
</g>

<g fill="#ffffff" fill-opacity="1" stroke="none" transform="matrix(1,0,0,1,0,0)"
font-family="DejaVu Sans" font-size="14" font-weight="700" font-style="normal" 
>
<path vector-effect="non-scaling-stroke" fill-rule="evenodd" d="M44,21 L1361,21 L1361,674 L44,674 L44,21"/>
</g>

<g fill="none" stroke="#000000" stroke-opacity="1" stroke-width="1" stroke-linecap="square" stroke-linejoin="bevel" transform="matrix(1,0,0,1,0,0)"
font-family="DejaVu Sans" font-size="14" font-weight="700" font-style="normal" 
>
</g>

<g fill="none" stroke="#000000" stroke-opacity="1" stroke-width="1" stroke-linecap="square" stroke-linejoin="bevel" transform="matrix(1,0,0,1,0,0)"
font-family="DejaVu Sans" font-size="14" font-weight="700" font-style="normal" 
>
</g>

<g fill="none" stroke="#ff0000" stroke-opacity="1" stroke-width="2" stroke-linecap="square" stroke-linejoin="bevel" transform="matrix(1,0,0,1,0,0)"
font-family="DejaVu Sans" font-size="14" font-weight="700" font-style="normal" 
>
<polyline fill="none" vector-effect="non-scaling-stroke" points="47,671 48,654 50,637 51,620 52,603 54,587 55,571 56,554 57,539 59,523 60,507 61,492 63,476 64,461 65,445 67,430 68,416 69,403 70,391 72,383 73,378 74,379 76,387 77,402 78,423 80,555 81,563 82,573 84,583 85,592 86,601 87,607 89,612 90,616 91,619 93,620 94,620 95,620 97,619 98,618 99,616 101,613 102,611 103,608 104,604 106,600 107,596 108,591 110,585 111,579 112,571 114,563 115,553 116,541 117,528 119,514 120,499 121,483 123,467 124,449 125,431 127,413 128,395 129,379 131,367 132,360 133,360 134,369 136,387 137,412 138,549 140,561 141,573 142,585 144,596 145,605 146,612 147,617 149,621 150,624 151,625 153,626 154,625 155,625 157,624 158,622 159,620 161,618 162,616 163,613 164,610 166,607 167,603 168,599 170,594 171,588 172,582 174,575 175,566 176,556 178,545 179,533 180,520 181,506 183,491 184,475 185,457 187,438 188,418 189,398 191,378 192,361 193,350 194,346 196,352 197,369 198,395 200,542 201,555 202,569 204,583 205,595 206,605 208,613 209,618 210,622 211,624 213,626 214,627 215,627 217,626 218,626 219,624 221,623 222,621 223,619 224,617 226,614 227,611 228,608 230,604 231,600 232,595 234,590 235,583 236,576 238,568 239,558 240,547 241,535 243,523 244,510 245,496 247,480 248,463 249,444 251,424 252,402 253,381 254,362 256,347 257,340 258,343 260,357 261,382 262,537 264,550 265,565 266,580 268,593 269,604 270,612 271,617 273,622 274,624 275,626 277,627 278,627 279,627 281,626 282,625 283,624 285,622 286,620 287,618 288,616 290,613 291,610 292,607 294,603 295,598 296,593 298,588 299,581 300,574 301,565 303,555 304,544 305,532 307,520 308,506 309,492 311,476 312,458 313,439 315,418 316,396 317,374 318,355 320,341 321,337 322,343 324,360 325,389 326,539 328,554 329,569 330,584 331,596 333,607 334,614 335,619 337,623 338,625 339,627 341,628 342,628 343,627 345,627 346,625 347,624 348,622 350,620 351,618 352,616 354,613 355,610 356,607 358,603 359,598 360,593 362,587 363,581 364,573 365,564 367,554 368,543 369,531 371,519 372,506 373,491 375,475 376,457 377,438 378,417 380,395 381,373 382,354 384,340 385,335 386,342 388,360 389,389 390,539 392,554 393,570 394,584 395,597 397,607 398,614 399,619 401,623 402,625 403,627 405,628 406,628 407,627 408,627 410,626 411,624 412,623 414,621 415,618 416,616 418,613 419,610 420,607 422,603 423,599 424,594 425,588 427,581 428,574 429,565 431,555 432,544 433,533 435,521 436,508 437,493 439,477 440,460 441,441 442,420 444,398 445,376 446,356 448,341 449,335 450,340 452,356 453,384 454,537 455,552 457,567 458,582 459,596 461,606 462,614 463,619 465,623 466,625 467,627 469,628 470,628 471,628 472,627 474,626 475,625 476,623 478,621 479,619 480,617 482,614 483,611 484,608 485,604 487,600 488,595 489,590 491,583 492,576 493,567 495,558 496,547 497,536 499,524 500,512 501,498 502,482 504,466 505,447 506,427 508,405 509,383 510,362 512,346 513,336 514,337 515,350 517,375 518,534 519,547 521,563 522,578 523,592 525,603 526,612 527,618 529,622 530,625 531,627 532,628 534,628 535,628 536,628 538,627 539,626 540,624 542,622 543,620 544,618 546,616 547,613 548,610 549,606 551,602 552,598 553,592 555,586 556,580 557,572 559,562 560,552 561,542 562,530 564,518 565,505 566,491 568,475 569,458 570,439 572,418 573,396 574,375 576,355 577,341 578,336 579,342 581,360 582,389 583,540 585,554 586,570 587,585 589,597 590,608 591,615 592,620 594,624 595,626 596,628 598,629 599,629 600,629 602,628 603,627 604,626 606,624 607,622 608,620 609,618 611,616 612,613 613,610 615,606 616,602 617,597 619,592 620,586 621,578 623,570 624,561 625,551 626,541 628,530 629,518 630,505 632,491 633,476 634,458 636,440 637,419 638,398 639,377 641,358 642,344 643,339 645,344 646,362 647,390 649,540 650,555 651,570 653,585 654,598 655,608 656,615 658,621 659,625 660,627 662,629 663,630 664,630 666,630 667,629 668,628 669,627 671,626 672,624 673,622 675,620 676,618 677,615 679,612 680,609 681,605 683,601 684,596 685,590 686,583 688,575 689,567 690,558 692,549 693,539 694,528 696,517 697,505 698,491 700,476 701,459 702,441 703,421 705,401 706,381 707,362 709,349 710,344 711,349 713,366 714,392 715,542 716,556 718,571 719,585 720,598 722,608 723,616 724,622 726,626 727,629 728,631 730,632 731,633 732,632 733,632 735,631 736,630 737,629 739,628 740,626 741,624 743,622 744,620 745,617 746,614 748,611 749,607 750,602 752,597 753,592 754,585 756,578 757,570 758,563 760,555 761,547 762,538 763,528 765,518 766,507 767,494 769,480 770,465 771,449 773,431 774,412 775,394 776,376 778,363 779,355 780,356 782,368 783,390 784,420 786,555 787,568 788,582 790,595 791,607 792,616 793,623 795,628 796,631 797,634 799,636 800,636 801,637 803,637 804,636 805,636 807,635 808,634 809,633 810,632 812,630 813,629 814,627 816,624 817,622 818,619 820,616 821,612 822,608 823,603 825,598 826,593 827,589 829,584 830,579 831,574 833,569 834,564 835,558 837,552 838,545 839,538 840,531 842,522 843,513 844,504 846,493 847,481 848,468 850,455 851,440 852,425 853,410 855,397 856,385 857,379 859,378 860,386 861,403 863,427 864,456 865,572 867,584 868,596 869,607 870,617 872,624 873,630 874,635 876,638 877,640 878,642 880,643 881,644 882,644 884,644 885,644 886,644 887,643 889,643 890,642 891,641 893,640 894,639 895,637 897,636 898,634 899,632 900,630 902,629 903,627 904,626 906,625 907,624 908,623 910,622 911,622 912,621 914,620 915,620 916,619 917,619 919,618 920,618 921,618 923,618 924,618 925,618 927,618 928,618 929,618 930,618 932,618 933,618 934,618 936,619 937,619 938,619 940,619 941,619 942,619 944,619 945,619 946,618 947,618 949,618 950,618 951,618 953,617 954,617 955,617 957,616 958,616 959,616 961,615 962,615 963,615 964,615 966,614 967,614 968,614 970,613 971,613 972,613 974,613 975,612 976,612 977,612 979,612 980,611 981,611 983,611 984,611 985,610 987,610 988,610 989,610 991,609 992,609 993,609 994,609 996,609 997,608 998,608 1000,608 1001,608 1002,608 1004,608 1005,607 1006,607 1007,607 1009,607 1010,607 1011,607 1013,607 1014,606 1015,606 1017,606 1018,606 1019,606 1021,606 1022,606 1023,605 1024,605 1026,605 1027,605 1028,605 1030,605 1031,605 1032,605 1034,605 1035,604 1036,604 1037,604 1039,604 1040,604 1041,604 1043,604 1044,604 1045,604 1047,604 1048,603 1049,603 1051,603 1052,603 1053,603 1054,603 1056,603 1057,603 1058,603 1060,603 1061,602 1062,602 1064,602 1065,602 1066,602 1068,602 1069,602 1070,602 1071,602 1073,602 1074,602 1075,601 1077,601 1078,601 1079,601 1081,601 1082,601 1083,601 1084,601 1086,601 1087,601 1088,600 1090,600 1091,600 1092,600 1094,600 1095,600 1096,600 1098,600 1099,600 1100,600 1101,600 1103,599 1104,599 1105,599 1107,599 1108,599 1109,599 1111,599 1112,599 1113,599 1114,599 1116,598 1117,598 1118,598 1120,598 1121,598 1122,598 1124,598 1125,598 1126,598 1128,597 1129,597 1130,597 1131,597 1133,597 1134,597 1135,597 1137,597 1138,597 1139,596 1141,596 1142,596 1143,596 1145,596 1146,596 1147,596 1148,596 1150,595 1151,595 1152,595 1154,595 1155,595 1156,595 1158,595 1159,595 1160,594 1161,594 1163,594 1164,594 1165,594 1167,594 1168,594 1169,593 1171,593 1172,593 1173,593 1175,593 1176,593 1177,593 1178,592 1180,592 1181,592 1182,592 1184,592 1185,592 1186,591 1188,591 1189,591 1190,591 1191,591 1193,591 1194,590 1195,590 1197,590 1198,590 1199,590 1201,589 1202,589 1203,589 1205,589 1206,589 1207,589 1208,588 1210,588 1211,588 1212,588 1214,587 1215,587 1216,587 1218,587 1219,587 1220,586 1222,586 1223,586 1224,586 1225,585 1227,585 1228,585 1229,585 1231,584 1232,584 1233,584 1235,584 1236,583 1237,583 1238,583 1240,582 1241,582 1242,582 1244,581 1245,581 1246,581 1248,580 1249,580 1250,580 1252,579 1253,579 1254,578 1255,578 1257,577 1258,577 1259,576 1261,576 1262,575 1263,575 1265,574 1266,574 1267,573 1268,573 1270,572 1271,571 1272,570 1274,570 1275,569 1276,568 1278,567 1279,566 1280,565 1282,564 1283,563 1284,562 1285,561 1287,559 1288,558 1289,556 1291,554 1292,553 1293,551 1295,548 1296,546 1297,543 1298,541 1300,537 1301,534 1302,530 1304,526 1305,522 1306,517 1308,511 1309,505 1310,498 1312,491 1313,483 1314,474 1315,464 1317,454 1318,444 1319,433 1321,422 1322,413 1323,405 1325,401 1326,402 1327,409 1329,423 1330,443 1331,469 1332,582 1334,597 1335,612 1336,625 1338,636 1339,645 1340,651 1342,656 1343,660 1344,662 1345,664 1347,666 1348,667 1349,668 1351,668 1352,668 " />
</g>

<g fill="none" stroke="#000000" stroke-opacity="1" stroke-width="1" stroke-linecap="square" stroke-linejoin="bevel" transform="matrix(1,0,0,1,0,0)"
font-family="DejaVu Sans" font-size="14" font-weight="700" font-style="normal" 
>
</g>

<g fill="none" stroke="#000000" stroke-opacity="1" stroke-width="1" stroke-linecap="square" stroke-linejoin="bevel" transform="matrix(1,0,0,1,0,0)"
font-family="DejaVu Sans" font-size="14" font-weight="700" font-style="normal" 
>
</g>

<g fill="none" stroke="#000000" stroke-opacity="1" stroke-width="1" stroke-linecap="square" stroke-linejoin="bevel" transform="matrix(1,0,0,1,0,0)"
font-family="DejaVu Sans" font-size="14" font-weight="700" font-style="normal" 
>
</g>

<g fill="none" stroke="#0000ff" stroke-opacity="1" stroke-width="2" stroke-linecap="square" stroke-linejoin="bevel" transform="matrix(1,0,0,1,0,0)"
font-family="DejaVu Sans" font-size="14" font-weight="700" font-style="normal" 
>
<polyline fill="none" vector-effect="non-scaling-stroke" points="47,671 48,667 50,665 51,662 52,660 54,656 55,652 56,647 57,642 59,635 60,628 61,621 63,612 64,604 65,595 67,586 68,578 69,569 70,561 72,554 73,546 74,540 76,533 77,528 78,523 80,597 81,602 82,606 84,609 85,613 86,617 87,621 89,625 90,629 91,633 93,636 94,639 95,641 97,642 98,643 99,643 101,642 102,642 103,640 104,639 106,637 107,635 108,632 110,628 111,624 112,619 114,613 115,606 116,597 117,587 119,574 120,559 121,542 123,522 124,500 125,476 127,450 128,422 129,396 131,373 132,355 133,344 134,337 136,331 137,328 138,502 140,510 141,516 142,524 144,532 145,541 146,551 147,562 149,572 150,583 151,593 153,602 154,610 155,618 157,624 158,629 159,632 161,635 162,636 163,637 164,637 166,636 167,635 168,633 170,630 171,627 172,623 174,618 175,613 176,605 178,597 179,586 180,573 181,558 183,541 184,521 185,498 187,472 188,443 189,411 191,376 192,340 193,305 194,275 196,254 197,242 198,236 200,454 201,462 202,469 204,477 205,487 206,497 208,508 209,520 210,533 211,545 213,558 214,569 215,581 217,591 218,600 219,609 221,616 222,621 223,626 224,629 226,631 227,632 228,633 230,632 231,631 232,629 234,626 235,622 236,618 238,612 239,605 240,597 241,586 243,574 244,560 245,543 247,523 248,501 249,475 251,446 252,413 253,377 254,339 256,299 257,261 258,230 260,208 261,197 262,431 264,440 265,447 266,455 268,464 269,475 270,486 271,499 273,512 274,525 275,538 277,551 278,563 279,575 281,585 282,595 283,604 285,611 286,617 287,622 288,626 290,628 291,630 292,630 294,630 295,629 296,627 298,624 299,620 300,615 301,609 303,602 304,593 305,582 307,569 308,554 309,536 311,516 312,492 313,466 315,435 316,401 317,363 318,323 320,282 321,243 322,210 324,189 325,177 326,425 328,432 329,440 330,448 331,458 333,469 334,481 335,494 337,508 338,521 339,534 341,547 342,560 343,571 345,582 346,592 347,601 348,609 350,615 351,620 352,624 354,627 355,628 356,629 358,629 359,628 360,626 362,623 363,619 364,614 365,608 367,601 368,591 369,580 371,567 372,552 373,535 375,514 376,491 377,464 378,433 380,398 381,360 382,319 384,277 385,238 386,204 388,181 389,169 390,421 392,428 393,436 394,444 395,454 397,465 398,478 399,491 401,504 402,518 403,531 405,544 406,557 407,569 408,580 410,590 411,599 412,607 414,614 415,619 416,623 418,626 419,628 420,629 422,629 423,628 424,626 425,623 427,619 428,615 429,609 431,601 432,592 433,581 435,569 436,554 437,537 439,517 440,493 441,467 442,437 444,403 445,365 446,324 448,282 449,241 450,206 452,181 453,166 454,417 455,425 457,433 458,441 459,451 461,462 462,474 463,487 465,501 466,514 467,528 469,541 470,554 471,566 472,577 474,588 475,597 476,605 478,612 479,618 480,622 482,626 483,628 484,629 485,629 487,628 488,626 489,624 491,621 492,616 493,611 495,604 496,595 497,585 499,572 500,558 501,542 502,522 504,500 505,475 506,446 508,413 509,376 510,336 512,294 513,253 514,215 515,186 517,168 518,413 519,422 521,429 522,437 523,446 525,457 526,469 527,482 529,496 530,509 531,523 532,536 534,550 535,562 536,574 538,585 539,594 540,603 542,610 543,617 544,621 546,625 547,628 548,629 549,630 551,629 552,628 553,626 555,623 556,619 557,614 559,607 560,599 561,590 562,579 564,566 565,550 566,533 568,512 569,489 570,462 572,431 573,397 574,359 576,318 577,276 578,235 579,201 581,176 582,162 583,417 585,424 586,432 587,440 589,450 590,462 591,474 592,488 594,501 595,515 596,529 598,542 599,555 600,567 602,579 603,589 604,599 606,607 607,614 608,620 609,624 611,627 612,630 613,631 615,631 616,630 617,629 619,626 620,623 621,619 623,613 624,607 625,599 626,589 628,578 629,565 630,549 632,532 633,512 634,488 636,462 637,431 638,397 639,360 641,319 642,277 643,237 645,202 646,176 647,161 649,415 650,423 651,430 653,439 654,449 655,460 656,473 658,486 659,500 660,514 662,528 663,542 664,555 666,568 667,580 668,590 669,600 671,609 672,616 673,622 675,626 676,630 677,632 679,633 680,633 681,633 683,631 684,629 685,627 686,623 688,618 689,612 690,605 692,596 693,587 694,575 696,562 697,547 698,529 700,509 701,486 702,460 703,430 705,396 706,359 707,320 709,279 710,239 711,204 713,177 714,161 715,412 716,421 718,428 719,437 720,447 722,459 723,472 724,485 726,499 727,514 728,528 730,542 731,556 732,569 733,581 735,593 736,603 737,612 739,619 740,625 741,630 743,634 744,636 745,638 746,638 748,638 749,637 750,635 752,633 753,630 754,626 756,621 757,616 758,609 760,602 761,593 762,583 763,572 765,559 766,545 767,528 769,509 770,487 771,463 773,435 774,404 775,369 776,332 778,293 779,254 780,218 782,188 783,166 784,154 786,414 787,422 788,431 790,440 791,452 792,464 793,478 795,493 796,508 797,523 799,538 800,553 801,567 803,580 804,593 805,604 807,614 808,623 809,630 810,636 812,640 813,643 814,645 816,646 817,646 818,645 820,645 821,643 822,641 823,639 825,637 826,634 827,630 829,626 830,622 831,617 833,612 834,607 835,600 837,593 838,586 839,577 840,567 842,556 843,543 844,529 846,513 847,495 848,475 850,452 851,427 852,399 853,368 855,335 856,301 857,266 859,233 860,203 861,178 863,161 864,150 865,412 867,422 868,432 869,443 870,456 872,470 873,485 874,501 876,517 877,534 878,550 880,566 881,581 882,596 884,609 885,621 886,631 887,640 889,646 890,651 891,654 893,655 894,656 895,656 897,656 898,656 899,656 900,655 902,655 903,655 904,654 906,654 907,654 908,654 910,653 911,653 912,653 914,653 915,653 916,653 917,654 919,654 920,654 921,654 923,654 924,655 925,655 927,655 928,656 929,656 930,657 932,657 933,657 934,657 936,657 937,658 938,658 940,658 941,658 942,658 944,658 945,658 946,658 947,658 949,658 950,658 951,658 953,657 954,657 955,657 957,657 958,657 959,657 961,657 962,657 963,657 964,656 966,656 967,656 968,656 970,656 971,656 972,656 974,655 975,655 976,655 977,655 979,655 980,655 981,655 983,655 984,655 985,654 987,654 988,654 989,654 991,654 992,654 993,654 994,654 996,654 997,654 998,653 1000,653 1001,653 1002,653 1004,653 1005,653 1006,653 1007,653 1009,653 1010,653 1011,653 1013,652 1014,652 1015,652 1017,652 1018,652 1019,652 1021,652 1022,652 1023,652 1024,652 1026,652 1027,652 1028,652 1030,652 1031,651 1032,651 1034,651 1035,651 1036,651 1037,651 1039,651 1040,651 1041,651 1043,651 1044,651 1045,651 1047,651 1048,651 1049,651 1051,651 1052,651 1053,650 1054,650 1056,650 1057,650 1058,650 1060,650 1061,650 1062,650 1064,650 1065,650 1066,650 1068,650 1069,650 1070,650 1071,650 1073,650 1074,650 1075,650 1077,649 1078,649 1079,649 1081,649 1082,649 1083,649 1084,649 1086,649 1087,649 1088,649 1090,649 1091,649 1092,649 1094,649 1095,649 1096,649 1098,649 1099,649 1100,648 1101,648 1103,648 1104,648 1105,648 1107,648 1108,648 1109,648 1111,648 1112,648 1113,648 1114,648 1116,648 1117,648 1118,648 1120,647 1121,647 1122,647 1124,647 1125,647 1126,647 1128,647 1129,647 1130,647 1131,647 1133,647 1134,647 1135,647 1137,647 1138,646 1139,646 1141,646 1142,646 1143,646 1145,646 1146,646 1147,646 1148,646 1150,646 1151,646 1152,646 1154,645 1155,645 1156,645 1158,645 1159,645 1160,645 1161,645 1163,645 1164,645 1165,645 1167,645 1168,644 1169,644 1171,644 1172,644 1173,644 1175,644 1176,644 1177,644 1178,644 1180,643 1181,643 1182,643 1184,643 1185,643 1186,643 1188,643 1189,643 1190,643 1191,642 1193,642 1194,642 1195,642 1197,642 1198,642 1199,642 1201,641 1202,641 1203,641 1205,641 1206,641 1207,641 1208,641 1210,640 1211,640 1212,640 1214,640 1215,640 1216,639 1218,639 1219,639 1220,639 1222,639 1223,639 1224,638 1225,638 1227,638 1228,638 1229,637 1231,637 1232,637 1233,637 1235,636 1236,636 1237,636 1238,636 1240,635 1241,635 1242,635 1244,635 1245,634 1246,634 1248,634 1249,633 1250,633 1252,632 1253,632 1254,632 1255,631 1257,631 1258,630 1259,630 1261,629 1262,629 1263,628 1265,628 1266,627 1267,626 1268,626 1270,625 1271,624 1272,624 1274,623 1275,622 1276,621 1278,620 1279,619 1280,618 1282,617 1283,615 1284,614 1285,612 1287,611 1288,609 1289,607 1291,605 1292,603 1293,600 1295,597 1296,594 1297,591 1298,587 1300,583 1301,579 1302,574 1304,568 1305,561 1306,554 1308,546 1309,537 1310,527 1312,515 1313,502 1314,488 1315,471 1317,453 1318,433 1319,410 1321,386 1322,360 1323,332 1325,304 1326,276 1327,250 1329,227 1330,208 1331,195 1332,428 1334,443 1335,461 1336,482 1338,504 1339,528 1340,553 1342,577 1343,602 1344,624 1345,644 1347,658 1348,666 1349,669 1351,670 1352,670 " />
</g>

<g fill="none" stroke="#000000" stroke-opacity="1" stroke-width="1" stroke-linecap="square" stroke-linejoin="bevel" transform="matrix(1,0,0,1,0,0)"
font-family="DejaVu Sans" font-size="14" font-weight="700" font-style="normal" 
>
</g>

<g fill="none" stroke="#000000" stroke-opacity="1" stroke-width="1" stroke-linecap="square" stroke-linejoin="bevel" transform="matrix(1,0,0,1,0,0)"
font-family="DejaVu Sans" font-size="14" font-weight="700" font-style="normal" 
>
</g>

<g fill="none" stroke="#000000" stroke-opacity="1" stroke-width="1" stroke-linecap="square" stroke-linejoin="bevel" transform="matrix(1,0,0,1,0,0)"
font-family="DejaVu Sans" font-size="14" font-weight="700" font-style="normal" 
>
</g>

<g fill="none" stroke="#00e600" stroke-opacity="1" stroke-width="2" stroke-linecap="square" stroke-linejoin="bevel" transform="matrix(1,0,0,1,0,0)"
font-family="DejaVu Sans" font-size="14" font-weight="700" font-style="normal" 
>
<polyline fill="none" vector-effect="non-scaling-stroke" points="47,671 48,669 50,667 51,664 52,662 54,660 55,659 56,658 57,657 59,656 60,656 61,656 63,656 64,657 65,657 67,657 68,658 69,658 70,659 72,659 73,659 74,659 76,659 77,658 78,656 80,659 81,651 82,645 84,640 85,635 86,630 87,625 89,620 90,615 91,610 93,606 94,602 95,598 97,595 98,592 99,589 101,586 102,584 103,581 104,579 106,577 107,576 108,574 110,574 111,573 112,573 114,574 115,576 116,578 117,582 119,588 120,595 121,603 123,612 124,622 125,631 127,640 128,647 129,652 131,654 132,656 133,656 134,656 136,655 137,654 138,652 140,640 141,631 142,621 144,611 145,601 146,591 147,581 149,572 150,564 151,557 153,551 154,546 155,542 157,538 158,535 159,532 161,529 162,527 163,524 164,522 166,520 167,519 168,517 170,516 171,516 172,515 174,516 175,517 176,520 178,523 179,528 180,535 181,543 183,553 184,565 185,579 187,594 188,610 189,626 191,640 192,649 193,654 194,656 196,656 197,656 198,654 200,653 201,640 202,630 204,619 205,607 206,595 208,582 209,570 210,558 211,547 213,537 214,529 215,522 217,516 218,512 219,508 221,504 222,501 223,499 224,496 226,494 227,492 228,490 230,488 231,487 232,486 234,486 235,486 236,486 238,488 239,490 240,494 241,499 243,506 244,514 245,524 247,537 248,551 249,568 251,586 252,606 253,625 254,640 256,651 257,655 258,656 260,656 261,655 262,655 264,642 265,631 266,620 268,607 269,594 270,581 271,567 273,554 274,542 275,530 277,520 278,512 279,505 281,499 282,495 283,491 285,488 286,485 287,482 288,480 290,478 291,476 292,474 294,472 295,471 296,471 298,470 299,471 300,472 301,473 303,476 304,481 305,487 307,494 308,503 309,514 311,528 312,543 313,561 315,581 316,602 317,623 318,640 320,651 321,655 322,656 324,656 325,655 326,650 328,638 329,627 330,615 331,603 333,589 334,575 335,561 337,547 338,535 339,523 341,513 342,504 343,497 345,491 346,487 347,483 348,480 350,477 351,474 352,472 354,470 355,468 356,466 358,465 359,463 360,463 362,463 363,463 364,464 365,466 367,469 368,474 369,480 371,487 372,497 373,508 375,521 376,537 377,556 378,576 380,598 381,620 382,638 384,650 385,655 386,656 388,656 389,655 390,650 392,638 393,626 394,614 395,602 397,588 398,574 399,559 401,545 402,532 403,520 405,510 406,501 407,494 408,488 410,483 411,479 412,476 414,473 415,470 416,468 418,466 419,464 420,462 422,461 423,459 424,459 425,458 427,459 428,460 429,462 431,465 432,469 433,475 435,483 436,492 437,503 439,516 440,532 441,550 442,570 444,592 445,615 446,634 448,648 449,654 450,656 452,656 453,655 454,652 455,639 457,628 458,616 459,603 461,589 462,575 463,560 465,546 466,533 467,521 469,510 470,501 471,493 472,487 474,482 475,477 476,474 478,471 479,468 480,466 482,464 483,462 484,460 485,458 487,457 488,456 489,456 491,456 492,457 493,459 495,462 496,466 497,471 499,478 500,487 501,497 502,510 504,525 505,542 506,562 508,584 509,607 510,628 512,644 513,653 514,656 515,656 517,655 518,656 519,643 521,631 522,620 523,607 525,593 526,579 527,564 529,550 530,536 531,523 532,512 534,502 535,494 536,487 538,482 539,477 540,473 542,470 543,467 544,465 546,463 547,460 548,459 549,457 551,456 552,455 553,454 555,454 556,454 557,456 559,458 560,462 561,466 562,472 564,480 565,490 566,501 568,515 569,531 570,549 572,570 573,593 574,615 576,635 577,648 578,654 579,656 581,656 582,654 583,650 585,638 586,626 587,614 589,601 590,587 591,572 592,558 594,543 595,530 596,517 598,506 599,497 600,489 602,483 603,478 604,474 606,470 607,467 608,464 609,462 611,460 612,458 613,456 615,454 616,453 617,452 619,451 620,451 621,452 623,453 624,456 625,460 626,464 628,471 629,478 630,488 632,499 633,513 634,529 636,547 637,568 638,590 639,613 641,633 642,647 643,654 645,656 646,656 647,654 649,651 650,638 651,627 653,614 654,601 655,587 656,572 658,557 659,543 660,529 662,516 663,505 664,495 666,487 667,480 668,475 669,471 671,467 672,464 673,461 675,459 676,456 677,454 679,452 680,450 681,449 683,448 684,447 685,447 686,447 688,448 689,450 690,453 692,457 693,462 694,468 696,476 697,485 698,497 700,510 701,526 702,544 703,565 705,587 706,610 707,630 709,645 710,653 711,655 713,655 714,654 715,653 716,639 718,627 719,615 720,601 722,587 723,572 724,556 726,541 727,527 728,513 730,501 731,491 732,483 733,476 735,470 736,466 737,462 739,459 740,456 741,453 743,450 744,448 745,445 746,443 748,442 749,440 750,439 752,438 753,437 754,438 756,438 757,440 758,442 760,445 761,449 762,454 763,461 765,468 766,477 767,488 769,501 770,516 771,533 773,553 774,574 775,596 776,618 778,636 779,648 780,653 782,654 783,653 784,651 786,646 787,633 788,620 790,606 791,591 792,576 793,560 795,543 796,528 797,513 799,499 800,487 801,477 803,468 804,462 805,457 807,452 808,448 809,445 810,442 812,439 813,436 814,433 816,430 817,428 818,426 820,423 821,422 822,420 823,419 825,418 826,417 827,417 829,417 830,418 831,418 833,420 834,421 835,423 837,426 838,430 839,434 840,440 842,446 843,454 844,463 846,474 847,487 848,501 850,518 851,536 852,556 853,577 855,599 856,618 857,634 859,644 860,649 861,650 863,649 864,646 865,642 867,627 868,611 869,595 870,579 872,561 873,543 874,525 876,508 877,491 878,476 880,463 881,451 882,442 884,435 885,429 886,424 887,420 889,416 890,412 891,408 893,405 894,401 895,398 897,395 898,392 899,389 900,386 902,383 903,380 904,378 906,375 907,372 908,369 910,366 911,363 912,360 914,357 915,354 916,351 917,348 919,345 920,342 921,339 923,336 924,333 925,330 927,327 928,324 929,321 930,318 932,315 933,312 934,309 936,306 937,303 938,300 940,297 941,295 942,292 944,289 945,287 946,285 947,282 949,280 950,277 951,275 953,273 954,271 955,269 957,266 958,264 959,262 961,260 962,258 963,256 964,254 966,252 967,250 968,248 970,246 971,244 972,242 974,240 975,239 976,237 977,235 979,233 980,231 981,230 983,228 984,226 985,224 987,223 988,221 989,219 991,218 992,216 993,214 994,213 996,211 997,209 998,208 1000,206 1001,205 1002,203 1004,202 1005,200 1006,199 1007,197 1009,196 1010,194 1011,193 1013,191 1014,190 1015,189 1017,187 1018,186 1019,184 1021,183 1022,182 1023,180 1024,179 1026,178 1027,177 1028,175 1030,174 1031,173 1032,172 1034,170 1035,169 1036,168 1037,167 1039,166 1040,164 1041,163 1043,162 1044,161 1045,160 1047,159 1048,158 1049,156 1051,155 1052,154 1053,153 1054,152 1056,151 1057,150 1058,149 1060,148 1061,147 1062,146 1064,145 1065,144 1066,143 1068,142 1069,141 1070,140 1071,139 1073,139 1074,138 1075,137 1077,136 1078,135 1079,134 1081,133 1082,132 1083,132 1084,131 1086,130 1087,129 1088,128 1090,127 1091,127 1092,126 1094,125 1095,124 1096,124 1098,123 1099,122 1100,121 1101,121 1103,120 1104,119 1105,119 1107,118 1108,117 1109,116 1111,116 1112,115 1113,114 1114,114 1116,113 1117,113 1118,112 1120,111 1121,111 1122,110 1124,110 1125,109 1126,108 1128,108 1129,107 1130,107 1131,106 1133,106 1134,105 1135,105 1137,104 1138,103 1139,103 1141,102 1142,102 1143,101 1145,101 1146,100 1147,100 1148,100 1150,99 1151,99 1152,98 1154,98 1155,97 1156,97 1158,96 1159,96 1160,96 1161,95 1163,95 1164,94 1165,94 1167,94 1168,93 1169,93 1171,93 1172,92 1173,92 1175,92 1176,91 1177,91 1178,91 1180,90 1181,90 1182,90 1184,89 1185,89 1186,89 1188,88 1189,88 1190,88 1191,88 1193,87 1194,87 1195,87 1197,87 1198,86 1199,86 1201,86 1202,86 1203,86 1205,85 1206,85 1207,85 1208,85 1210,85 1211,85 1212,84 1214,84 1215,84 1216,84 1218,84 1219,84 1220,84 1222,83 1223,83 1224,83 1225,83 1227,83 1228,83 1229,83 1231,83 1232,83 1233,83 1235,83 1236,83 1237,83 1238,83 1240,83 1241,83 1242,83 1244,83 1245,83 1246,83 1248,84 1249,84 1250,84 1252,84 1253,84 1254,84 1255,85 1257,85 1258,85 1259,85 1261,86 1262,86 1263,87 1265,87 1266,87 1267,88 1268,88 1270,89 1271,90 1272,90 1274,91 1275,92 1276,93 1278,94 1279,95 1280,96 1282,97 1283,98 1284,100 1285,101 1287,103 1288,105 1289,107 1291,109 1292,111 1293,114 1295,117 1296,120 1297,123 1298,127 1300,132 1301,137 1302,142 1304,148 1305,155 1306,163 1308,171 1309,181 1310,192 1312,204 1313,218 1314,233 1315,250 1317,270 1318,291 1319,314 1321,339 1322,366 1323,395 1325,424 1326,452 1327,479 1329,503 1330,522 1331,535 1332,600 1334,580 1335,558 1336,534 1338,509 1339,482 1340,455 1342,427 1343,400 1344,373 1345,349 1347,328 1348,312 1349,302 1351,296 1352,293 " />
</g>

<g fill="none" stroke="#000000" stroke-opacity="1" stroke-width="1" stroke-linecap="square" stroke-linejoin="bevel" transform="matrix(1,0,0,1,0,0)"
font-family="DejaVu Sans" font-size="14" font-weight="700" font-style="normal" 
>
</g>

<g fill="none" stroke="#000000" stroke-opacity="1" stroke-width="1" stroke-linecap="square" stroke-linejoin="bevel" transform="matrix(1,0,0,1,0,0)"
font-family="DejaVu Sans" font-size="14" font-weight="700" font-style="normal" 
>
</g>

<g fill="none" stroke="#000000" stroke-opacity="1" stroke-width="1" stroke-linecap="square" stroke-linejoin="bevel" transform="matrix(1,0,0,1,0,0)"
font-family="Sans Serif" font-size="9" font-weight="400" font-style="normal" 
>
</g>
</g>
</svg>
