<?xml version="1.0" encoding="UTF-8" standalone="no"?>
<svg xmlns="http://www.w3.org/2000/svg" xmlns:xlink="http://www.w3.org/1999/xlink"  version="1.2" baseProfile="tiny">
<title>Qt Svg Document</title>
<desc>Generated with Qt</desc>
<defs>
</defs>
<g fill="none" stroke="black" stroke-width="1" fill-rule="evenodd" stroke-linecap="square" stroke-linejoin="bevel" >

<g fill="none" stroke="#000000" stroke-opacity="1" stroke-width="1" stroke-linecap="square" stroke-linejoin="bevel" transform="matrix(1,0,0,1,0,0)"
font-family="DejaVu Sans" font-size="14" font-weight="700" font-style="normal" 
>
<text fill="#000000" fill-opacity="1" stroke="none" xml:space="preserve" x="612.5" y="14" font-family="DejaVu Sans" font-size="14" font-weight="700" font-style="normal" 
 >Upper part of Figure1B</text>
</g>

<g fill="none" stroke="#000000" stroke-opacity="1" stroke-width="1" stroke-linecap="square" stroke-linejoin="bevel" transform="matrix(1,0,0,1,0,0)"
font-family="DejaVu Sans" font-size="14" font-weight="700" font-style="normal" 
>
</g>

<g fill="none" stroke="#000000" stroke-opacity="1" stroke-width="1" stroke-linecap="square" stroke-linejoin="bevel" transform="matrix(1,0,0,1,0,0)"
font-family="DejaVu Sans" font-size="14" font-weight="700" font-style="normal" 
>
</g>

<g fill="none" stroke="#000000" stroke-opacity="1" stroke-width="1" stroke-linecap="square" stroke-linejoin="bevel" transform="matrix(1,0,0,1,0,0)"
font-family="Sans Serif" font-size="9" font-weight="400" font-style="normal" 
>
</g>

<g fill="none" stroke="#ff0000" stroke-opacity="1" stroke-width="2" stroke-linecap="square" stroke-linejoin="bevel" transform="matrix(1,0,0,1,0,0)"
font-family="Sans Serif" font-size="9" font-weight="400" font-style="normal" 
>
<polyline fill="none" vector-effect="non-scaling-stroke" points="590,719 595,719 " />
</g>

<g fill="none" stroke="#000000" stroke-opacity="1" stroke-width="1" stroke-linecap="square" stroke-linejoin="bevel" transform="matrix(1,0,0,1,0,0)"
font-family="Sans Serif" font-size="9" font-weight="400" font-style="normal" 
>
<text fill="#000000" fill-opacity="1" stroke="none" xml:space="preserve" x="598" y="723" font-family="Sans Serif" font-size="9" font-weight="400" font-style="normal" 
 >CycBT_1</text>
</g>

<g fill="none" stroke="#000000" stroke-opacity="1" stroke-width="1" stroke-linecap="square" stroke-linejoin="bevel" transform="matrix(1,0,0,1,0,0)"
font-family="Sans Serif" font-size="9" font-weight="400" font-style="normal" 
>
</g>

<g fill="none" stroke="#000000" stroke-opacity="1" stroke-width="1" stroke-linecap="square" stroke-linejoin="bevel" transform="matrix(1,0,0,1,0,0)"
font-family="Sans Serif" font-size="9" font-weight="400" font-style="normal" 
>
</g>

<g fill="none" stroke="#000000" stroke-opacity="1" stroke-width="1" stroke-linecap="square" stroke-linejoin="bevel" transform="matrix(1,0,0,1,0,0)"
font-family="DejaVu Sans" font-size="14" font-weight="700" font-style="normal" 
>
</g>

<g fill="none" stroke="#000000" stroke-opacity="1" stroke-width="1" stroke-linecap="square" stroke-linejoin="bevel" transform="matrix(1,0,0,1,0,0)"
font-family="DejaVu Sans" font-size="14" font-weight="700" font-style="normal" 
>
</g>

<g fill="none" stroke="#000000" stroke-opacity="1" stroke-width="1" stroke-linecap="square" stroke-linejoin="bevel" transform="matrix(1,0,0,1,0,0)"
font-family="Sans Serif" font-size="9" font-weight="400" font-style="normal" 
>
</g>

<g fill="none" stroke="#0000ff" stroke-opacity="1" stroke-width="2" stroke-linecap="square" stroke-linejoin="bevel" transform="matrix(1,0,0,1,0,0)"
font-family="Sans Serif" font-size="9" font-weight="400" font-style="normal" 
>
<polyline fill="none" vector-effect="non-scaling-stroke" points="649,719 654,719 " />
</g>

<g fill="none" stroke="#000000" stroke-opacity="1" stroke-width="1" stroke-linecap="square" stroke-linejoin="bevel" transform="matrix(1,0,0,1,0,0)"
font-family="Sans Serif" font-size="9" font-weight="400" font-style="normal" 
>
<text fill="#000000" fill-opacity="1" stroke="none" xml:space="preserve" x="657" y="723" font-family="Sans Serif" font-size="9" font-weight="400" font-style="normal" 
 >MPFc_1</text>
</g>

<g fill="none" stroke="#000000" stroke-opacity="1" stroke-width="1" stroke-linecap="square" stroke-linejoin="bevel" transform="matrix(1,0,0,1,0,0)"
font-family="Sans Serif" font-size="9" font-weight="400" font-style="normal" 
>
</g>

<g fill="none" stroke="#000000" stroke-opacity="1" stroke-width="1" stroke-linecap="square" stroke-linejoin="bevel" transform="matrix(1,0,0,1,0,0)"
font-family="Sans Serif" font-size="9" font-weight="400" font-style="normal" 
>
</g>

<g fill="none" stroke="#000000" stroke-opacity="1" stroke-width="1" stroke-linecap="square" stroke-linejoin="bevel" transform="matrix(1,0,0,1,0,0)"
font-family="DejaVu Sans" font-size="14" font-weight="700" font-style="normal" 
>
</g>

<g fill="none" stroke="#000000" stroke-opacity="1" stroke-width="1" stroke-linecap="square" stroke-linejoin="bevel" transform="matrix(1,0,0,1,0,0)"
font-family="DejaVu Sans" font-size="14" font-weight="700" font-style="normal" 
>
</g>

<g fill="none" stroke="#000000" stroke-opacity="1" stroke-width="1" stroke-linecap="square" stroke-linejoin="bevel" transform="matrix(1,0,0,1,0,0)"
font-family="Sans Serif" font-size="9" font-weight="400" font-style="normal" 
>
</g>

<g fill="none" stroke="#00e600" stroke-opacity="1" stroke-width="2" stroke-linecap="square" stroke-linejoin="bevel" transform="matrix(1,0,0,1,0,0)"
font-family="Sans Serif" font-size="9" font-weight="400" font-style="normal" 
>
<polyline fill="none" vector-effect="non-scaling-stroke" points="705,719 710,719 " />
</g>

<g fill="none" stroke="#000000" stroke-opacity="1" stroke-width="1" stroke-linecap="square" stroke-linejoin="bevel" transform="matrix(1,0,0,1,0,0)"
font-family="Sans Serif" font-size="9" font-weight="400" font-style="normal" 
>
<text fill="#000000" fill-opacity="1" stroke="none" xml:space="preserve" x="713" y="723" font-family="Sans Serif" font-size="9" font-weight="400" font-style="normal" 
 >StgPc_1</text>
</g>

<g fill="none" stroke="#000000" stroke-opacity="1" stroke-width="1" stroke-linecap="square" stroke-linejoin="bevel" transform="matrix(1,0,0,1,0,0)"
font-family="Sans Serif" font-size="9" font-weight="400" font-style="normal" 
>
</g>

<g fill="none" stroke="#000000" stroke-opacity="1" stroke-width="1" stroke-linecap="square" stroke-linejoin="bevel" transform="matrix(1,0,0,1,0,0)"
font-family="Sans Serif" font-size="9" font-weight="400" font-style="normal" 
>
</g>

<g fill="none" stroke="#000000" stroke-opacity="1" stroke-width="1" stroke-linecap="square" stroke-linejoin="bevel" transform="matrix(1,0,0,1,0,0)"
font-family="DejaVu Sans" font-size="14" font-weight="700" font-style="normal" 
>
</g>

<g fill="none" stroke="#000000" stroke-opacity="1" stroke-width="1" stroke-linecap="square" stroke-linejoin="bevel" transform="matrix(1,0,0,1,0,0)"
font-family="DejaVu Sans" font-size="14" font-weight="700" font-style="normal" 
>
</g>

<g fill="none" stroke="#000000" stroke-opacity="1" stroke-width="1" stroke-linecap="square" stroke-linejoin="bevel" transform="matrix(1,0,0,1,0,0)"
font-family="Sans Serif" font-size="9" font-weight="400" font-style="normal" 
>
</g>

<g fill="none" stroke="#00bef0" stroke-opacity="1" stroke-width="2" stroke-linecap="square" stroke-linejoin="bevel" transform="matrix(1,0,0,1,0,0)"
font-family="Sans Serif" font-size="9" font-weight="400" font-style="normal" 
>
<polyline fill="none" vector-effect="non-scaling-stroke" points="764,719 770,719 " />
</g>

<g fill="none" stroke="#000000" stroke-opacity="1" stroke-width="1" stroke-linecap="square" stroke-linejoin="bevel" transform="matrix(1,0,0,1,0,0)"
font-family="Sans Serif" font-size="9" font-weight="400" font-style="normal" 
>
<text fill="#000000" fill-opacity="1" stroke="none" xml:space="preserve" x="773" y="723" font-family="Sans Serif" font-size="9" font-weight="400" font-style="normal" 
 >Wee1c_1</text>
</g>

<g fill="none" stroke="#000000" stroke-opacity="1" stroke-width="1" stroke-linecap="square" stroke-linejoin="bevel" transform="matrix(1,0,0,1,0,0)"
font-family="Sans Serif" font-size="9" font-weight="400" font-style="normal" 
>
</g>

<g fill="none" stroke="#000000" stroke-opacity="1" stroke-width="1" stroke-linecap="square" stroke-linejoin="bevel" transform="matrix(1,0,0,1,0,0)"
font-family="Sans Serif" font-size="9" font-weight="400" font-style="normal" 
>
</g>

<g fill="none" stroke="#000000" stroke-opacity="1" stroke-width="1" stroke-linecap="square" stroke-linejoin="bevel" transform="matrix(1,0,0,1,0,0)"
font-family="DejaVu Sans" font-size="14" font-weight="700" font-style="normal" 
>
</g>

<g fill="none" stroke="#000000" stroke-opacity="1" stroke-width="1" stroke-linecap="square" stroke-linejoin="bevel" transform="matrix(0,-1,1,0,0,675)"
font-family="DejaVu Sans" font-size="10" font-weight="400" font-style="normal" 
>
</g>

<g fill="none" stroke="#000000" stroke-opacity="1" stroke-width="1" stroke-linecap="square" stroke-linejoin="bevel" transform="matrix(0,-1,1,0,0,675)"
font-family="DejaVu Sans" font-size="12" font-weight="700" font-style="normal" 
>
<text fill="#000000" fill-opacity="1" stroke="none" xml:space="preserve" x="311" y="11" font-family="DejaVu Sans" font-size="12" font-weight="700" font-style="normal" 
 >mol/l</text>
</g>

<g fill="none" stroke="#000000" stroke-opacity="1" stroke-width="1" stroke-linecap="square" stroke-linejoin="bevel" transform="matrix(0,-1,1,0,0,675)"
font-family="DejaVu Sans" font-size="10" font-weight="400" font-style="normal" 
>
</g>

<g fill="none" stroke="#000000" stroke-opacity="1" stroke-width="1" stroke-linecap="square" stroke-linejoin="bevel" transform="matrix(1,0,0,1,0,0)"
font-family="DejaVu Sans" font-size="14" font-weight="700" font-style="normal" 
>
</g>

<g fill="none" stroke="#000000" stroke-opacity="1" stroke-width="1" stroke-linecap="square" stroke-linejoin="bevel" transform="matrix(1,0,0,1,0,0)"
font-family="DejaVu Sans" font-size="10" font-weight="400" font-style="normal" 
>
</g>

<g fill="none" stroke="#000000" stroke-opacity="1" stroke-width="1" stroke-linecap="square" stroke-linejoin="bevel" transform="matrix(1,0,0,1,24,667)"
font-family="DejaVu Sans" font-size="10" font-weight="400" font-style="normal" 
>
<text fill="#000000" fill-opacity="1" stroke="none" xml:space="preserve" x="0" y="7" font-family="DejaVu Sans" font-size="10" font-weight="400" font-style="normal" 
 >0</text>
</g>

<g fill="none" stroke="#000000" stroke-opacity="1" stroke-width="1" stroke-linecap="square" stroke-linejoin="bevel" transform="matrix(1,0,0,1,24,667)"
font-family="DejaVu Sans" font-size="10" font-weight="400" font-style="normal" 
>
</g>

<g fill="none" stroke="#000000" stroke-opacity="1" stroke-width="1" stroke-linecap="square" stroke-linejoin="bevel" transform="matrix(1,0,0,1,0,0)"
font-family="DejaVu Sans" font-size="10" font-weight="400" font-style="normal" 
>
</g>

<g fill="none" stroke="#000000" stroke-opacity="1" stroke-width="1" stroke-linecap="square" stroke-linejoin="bevel" transform="matrix(1,0,0,1,15,560)"
font-family="DejaVu Sans" font-size="10" font-weight="400" font-style="normal" 
>
<text fill="#000000" fill-opacity="1" stroke="none" xml:space="preserve" x="0" y="7" font-family="DejaVu Sans" font-size="10" font-weight="400" font-style="normal" 
 >0.2</text>
</g>

<g fill="none" stroke="#000000" stroke-opacity="1" stroke-width="1" stroke-linecap="square" stroke-linejoin="bevel" transform="matrix(1,0,0,1,15,560)"
font-family="DejaVu Sans" font-size="10" font-weight="400" font-style="normal" 
>
</g>

<g fill="none" stroke="#000000" stroke-opacity="1" stroke-width="1" stroke-linecap="square" stroke-linejoin="bevel" transform="matrix(1,0,0,1,0,0)"
font-family="DejaVu Sans" font-size="10" font-weight="400" font-style="normal" 
>
</g>

<g fill="none" stroke="#000000" stroke-opacity="1" stroke-width="1" stroke-linecap="square" stroke-linejoin="bevel" transform="matrix(1,0,0,1,15,452)"
font-family="DejaVu Sans" font-size="10" font-weight="400" font-style="normal" 
>
<text fill="#000000" fill-opacity="1" stroke="none" xml:space="preserve" x="0" y="7" font-family="DejaVu Sans" font-size="10" font-weight="400" font-style="normal" 
 >0.4</text>
</g>

<g fill="none" stroke="#000000" stroke-opacity="1" stroke-width="1" stroke-linecap="square" stroke-linejoin="bevel" transform="matrix(1,0,0,1,15,452)"
font-family="DejaVu Sans" font-size="10" font-weight="400" font-style="normal" 
>
</g>

<g fill="none" stroke="#000000" stroke-opacity="1" stroke-width="1" stroke-linecap="square" stroke-linejoin="bevel" transform="matrix(1,0,0,1,0,0)"
font-family="DejaVu Sans" font-size="10" font-weight="400" font-style="normal" 
>
</g>

<g fill="none" stroke="#000000" stroke-opacity="1" stroke-width="1" stroke-linecap="square" stroke-linejoin="bevel" transform="matrix(1,0,0,1,15,345)"
font-family="DejaVu Sans" font-size="10" font-weight="400" font-style="normal" 
>
<text fill="#000000" fill-opacity="1" stroke="none" xml:space="preserve" x="0" y="7" font-family="DejaVu Sans" font-size="10" font-weight="400" font-style="normal" 
 >0.6</text>
</g>

<g fill="none" stroke="#000000" stroke-opacity="1" stroke-width="1" stroke-linecap="square" stroke-linejoin="bevel" transform="matrix(1,0,0,1,15,345)"
font-family="DejaVu Sans" font-size="10" font-weight="400" font-style="normal" 
>
</g>

<g fill="none" stroke="#000000" stroke-opacity="1" stroke-width="1" stroke-linecap="square" stroke-linejoin="bevel" transform="matrix(1,0,0,1,0,0)"
font-family="DejaVu Sans" font-size="10" font-weight="400" font-style="normal" 
>
</g>

<g fill="none" stroke="#000000" stroke-opacity="1" stroke-width="1" stroke-linecap="square" stroke-linejoin="bevel" transform="matrix(1,0,0,1,15,237)"
font-family="DejaVu Sans" font-size="10" font-weight="400" font-style="normal" 
>
<text fill="#000000" fill-opacity="1" stroke="none" xml:space="preserve" x="0" y="7" font-family="DejaVu Sans" font-size="10" font-weight="400" font-style="normal" 
 >0.8</text>
</g>

<g fill="none" stroke="#000000" stroke-opacity="1" stroke-width="1" stroke-linecap="square" stroke-linejoin="bevel" transform="matrix(1,0,0,1,15,237)"
font-family="DejaVu Sans" font-size="10" font-weight="400" font-style="normal" 
>
</g>

<g fill="none" stroke="#000000" stroke-opacity="1" stroke-width="1" stroke-linecap="square" stroke-linejoin="bevel" transform="matrix(1,0,0,1,0,0)"
font-family="DejaVu Sans" font-size="10" font-weight="400" font-style="normal" 
>
</g>

<g fill="none" stroke="#000000" stroke-opacity="1" stroke-width="1" stroke-linecap="square" stroke-linejoin="bevel" transform="matrix(1,0,0,1,24,130)"
font-family="DejaVu Sans" font-size="10" font-weight="400" font-style="normal" 
>
<text fill="#000000" fill-opacity="1" stroke="none" xml:space="preserve" x="0" y="7" font-family="DejaVu Sans" font-size="10" font-weight="400" font-style="normal" 
 >1</text>
</g>

<g fill="none" stroke="#000000" stroke-opacity="1" stroke-width="1" stroke-linecap="square" stroke-linejoin="bevel" transform="matrix(1,0,0,1,24,130)"
font-family="DejaVu Sans" font-size="10" font-weight="400" font-style="normal" 
>
</g>

<g fill="none" stroke="#000000" stroke-opacity="1" stroke-width="1" stroke-linecap="square" stroke-linejoin="bevel" transform="matrix(1,0,0,1,0,0)"
font-family="DejaVu Sans" font-size="10" font-weight="400" font-style="normal" 
>
</g>

<g fill="none" stroke="#000000" stroke-opacity="1" stroke-width="1" stroke-linecap="square" stroke-linejoin="bevel" transform="matrix(1,0,0,1,15,22)"
font-family="DejaVu Sans" font-size="10" font-weight="400" font-style="normal" 
>
<text fill="#000000" fill-opacity="1" stroke="none" xml:space="preserve" x="0" y="7" font-family="DejaVu Sans" font-size="10" font-weight="400" font-style="normal" 
 >1.2</text>
</g>

<g fill="none" stroke="#000000" stroke-opacity="1" stroke-width="1" stroke-linecap="square" stroke-linejoin="bevel" transform="matrix(1,0,0,1,15,22)"
font-family="DejaVu Sans" font-size="10" font-weight="400" font-style="normal" 
>
</g>

<g fill="none" stroke="#000000" stroke-opacity="1" stroke-width="1" stroke-linecap="square" stroke-linejoin="bevel" transform="matrix(1,0,0,1,0,0)"
font-family="DejaVu Sans" font-size="10" font-weight="400" font-style="normal" 
>
</g>

<g fill="none" stroke="#000000" stroke-opacity="1" stroke-width="1" stroke-linecap="square" stroke-linejoin="bevel" transform="matrix(1,0,0,1,0,0)"
font-family="DejaVu Sans" font-size="10" font-weight="400" font-style="normal" 
>
<polyline fill="none" vector-effect="non-scaling-stroke" points="42,644 39,644 " />
<polyline fill="none" vector-effect="non-scaling-stroke" points="42,590 39,590 " />
<polyline fill="none" vector-effect="non-scaling-stroke" points="42,537 39,537 " />
<polyline fill="none" vector-effect="non-scaling-stroke" points="42,483 39,483 " />
<polyline fill="none" vector-effect="non-scaling-stroke" points="42,429 39,429 " />
<polyline fill="none" vector-effect="non-scaling-stroke" points="42,375 39,375 " />
<polyline fill="none" vector-effect="non-scaling-stroke" points="42,322 39,322 " />
<polyline fill="none" vector-effect="non-scaling-stroke" points="42,268 39,268 " />
<polyline fill="none" vector-effect="non-scaling-stroke" points="42,214 39,214 " />
<polyline fill="none" vector-effect="non-scaling-stroke" points="42,160 39,160 " />
<polyline fill="none" vector-effect="non-scaling-stroke" points="42,107 39,107 " />
<polyline fill="none" vector-effect="non-scaling-stroke" points="42,53 39,53 " />
<polyline fill="none" vector-effect="non-scaling-stroke" points="42,617 37,617 " />
<polyline fill="none" vector-effect="non-scaling-stroke" points="42,510 37,510 " />
<polyline fill="none" vector-effect="non-scaling-stroke" points="42,402 37,402 " />
<polyline fill="none" vector-effect="non-scaling-stroke" points="42,295 37,295 " />
<polyline fill="none" vector-effect="non-scaling-stroke" points="42,187 37,187 " />
<polyline fill="none" vector-effect="non-scaling-stroke" points="42,80 37,80 " />
<polyline fill="none" vector-effect="non-scaling-stroke" points="42,671 36,671 " />
<polyline fill="none" vector-effect="non-scaling-stroke" points="42,564 36,564 " />
<polyline fill="none" vector-effect="non-scaling-stroke" points="42,456 36,456 " />
<polyline fill="none" vector-effect="non-scaling-stroke" points="42,349 36,349 " />
<polyline fill="none" vector-effect="non-scaling-stroke" points="42,241 36,241 " />
<polyline fill="none" vector-effect="non-scaling-stroke" points="42,134 36,134 " />
<polyline fill="none" vector-effect="non-scaling-stroke" points="42,26 36,26 " />
</g>

<g fill="none" stroke="#000000" stroke-opacity="1" stroke-width="1" stroke-linecap="square" stroke-linejoin="bevel" transform="matrix(1,0,0,1,0,0)"
font-family="DejaVu Sans" font-size="10" font-weight="400" font-style="normal" 
>
<polyline fill="none" vector-effect="non-scaling-stroke" points="42,26 42,671 " />
</g>

<g fill="none" stroke="#000000" stroke-opacity="1" stroke-width="1" stroke-linecap="square" stroke-linejoin="bevel" transform="matrix(1,0,0,1,0,0)"
font-family="DejaVu Sans" font-size="10" font-weight="400" font-style="normal" 
>
</g>

<g fill="none" stroke="#000000" stroke-opacity="1" stroke-width="1" stroke-linecap="square" stroke-linejoin="bevel" transform="matrix(1,0,0,1,0,0)"
font-family="DejaVu Sans" font-size="14" font-weight="700" font-style="normal" 
>
</g>

<g fill="none" stroke="#000000" stroke-opacity="1" stroke-width="1" stroke-linecap="square" stroke-linejoin="bevel" transform="matrix(1,0,0,1,44,675)"
font-family="DejaVu Sans" font-size="10" font-weight="400" font-style="normal" 
>
</g>

<g fill="none" stroke="#000000" stroke-opacity="1" stroke-width="1" stroke-linecap="square" stroke-linejoin="bevel" transform="matrix(1,0,0,1,44,675)"
font-family="DejaVu Sans" font-size="12" font-weight="700" font-style="normal" 
>
<text fill="#000000" fill-opacity="1" stroke="none" xml:space="preserve" x="655" y="33" font-family="DejaVu Sans" font-size="12" font-weight="700" font-style="normal" 
 >s</text>
</g>

<g fill="none" stroke="#000000" stroke-opacity="1" stroke-width="1" stroke-linecap="square" stroke-linejoin="bevel" transform="matrix(1,0,0,1,44,675)"
font-family="DejaVu Sans" font-size="10" font-weight="400" font-style="normal" 
>
</g>

<g fill="none" stroke="#000000" stroke-opacity="1" stroke-width="1" stroke-linecap="square" stroke-linejoin="bevel" transform="matrix(1,0,0,1,0,0)"
font-family="DejaVu Sans" font-size="14" font-weight="700" font-style="normal" 
>
</g>

<g fill="none" stroke="#000000" stroke-opacity="1" stroke-width="1" stroke-linecap="square" stroke-linejoin="bevel" transform="matrix(1,0,0,1,0,0)"
font-family="DejaVu Sans" font-size="10" font-weight="400" font-style="normal" 
>
</g>

<g fill="none" stroke="#000000" stroke-opacity="1" stroke-width="1" stroke-linecap="square" stroke-linejoin="bevel" transform="matrix(1,0,0,1,43,685)"
font-family="DejaVu Sans" font-size="10" font-weight="400" font-style="normal" 
>
<text fill="#000000" fill-opacity="1" stroke="none" xml:space="preserve" x="0" y="7" font-family="DejaVu Sans" font-size="10" font-weight="400" font-style="normal" 
 >0</text>
</g>

<g fill="none" stroke="#000000" stroke-opacity="1" stroke-width="1" stroke-linecap="square" stroke-linejoin="bevel" transform="matrix(1,0,0,1,43,685)"
font-family="DejaVu Sans" font-size="10" font-weight="400" font-style="normal" 
>
</g>

<g fill="none" stroke="#000000" stroke-opacity="1" stroke-width="1" stroke-linecap="square" stroke-linejoin="bevel" transform="matrix(1,0,0,1,0,0)"
font-family="DejaVu Sans" font-size="10" font-weight="400" font-style="normal" 
>
</g>

<g fill="none" stroke="#000000" stroke-opacity="1" stroke-width="1" stroke-linecap="square" stroke-linejoin="bevel" transform="matrix(1,0,0,1,301,685)"
font-family="DejaVu Sans" font-size="10" font-weight="400" font-style="normal" 
>
<text fill="#000000" fill-opacity="1" stroke="none" xml:space="preserve" x="0" y="7" font-family="DejaVu Sans" font-size="10" font-weight="400" font-style="normal" 
 >50</text>
</g>

<g fill="none" stroke="#000000" stroke-opacity="1" stroke-width="1" stroke-linecap="square" stroke-linejoin="bevel" transform="matrix(1,0,0,1,301,685)"
font-family="DejaVu Sans" font-size="10" font-weight="400" font-style="normal" 
>
</g>

<g fill="none" stroke="#000000" stroke-opacity="1" stroke-width="1" stroke-linecap="square" stroke-linejoin="bevel" transform="matrix(1,0,0,1,0,0)"
font-family="DejaVu Sans" font-size="10" font-weight="400" font-style="normal" 
>
</g>

<g fill="none" stroke="#000000" stroke-opacity="1" stroke-width="1" stroke-linecap="square" stroke-linejoin="bevel" transform="matrix(1,0,0,1,559,685)"
font-family="DejaVu Sans" font-size="10" font-weight="400" font-style="normal" 
>
<text fill="#000000" fill-opacity="1" stroke="none" xml:space="preserve" x="0" y="7" font-family="DejaVu Sans" font-size="10" font-weight="400" font-style="normal" 
 >100</text>
</g>

<g fill="none" stroke="#000000" stroke-opacity="1" stroke-width="1" stroke-linecap="square" stroke-linejoin="bevel" transform="matrix(1,0,0,1,559,685)"
font-family="DejaVu Sans" font-size="10" font-weight="400" font-style="normal" 
>
</g>

<g fill="none" stroke="#000000" stroke-opacity="1" stroke-width="1" stroke-linecap="square" stroke-linejoin="bevel" transform="matrix(1,0,0,1,0,0)"
font-family="DejaVu Sans" font-size="10" font-weight="400" font-style="normal" 
>
</g>

<g fill="none" stroke="#000000" stroke-opacity="1" stroke-width="1" stroke-linecap="square" stroke-linejoin="bevel" transform="matrix(1,0,0,1,820,685)"
font-family="DejaVu Sans" font-size="10" font-weight="400" font-style="normal" 
>
<text fill="#000000" fill-opacity="1" stroke="none" xml:space="preserve" x="0" y="7" font-family="DejaVu Sans" font-size="10" font-weight="400" font-style="normal" 
 >150</text>
</g>

<g fill="none" stroke="#000000" stroke-opacity="1" stroke-width="1" stroke-linecap="square" stroke-linejoin="bevel" transform="matrix(1,0,0,1,820,685)"
font-family="DejaVu Sans" font-size="10" font-weight="400" font-style="normal" 
>
</g>

<g fill="none" stroke="#000000" stroke-opacity="1" stroke-width="1" stroke-linecap="square" stroke-linejoin="bevel" transform="matrix(1,0,0,1,0,0)"
font-family="DejaVu Sans" font-size="10" font-weight="400" font-style="normal" 
>
</g>

<g fill="none" stroke="#000000" stroke-opacity="1" stroke-width="1" stroke-linecap="square" stroke-linejoin="bevel" transform="matrix(1,0,0,1,1081,685)"
font-family="DejaVu Sans" font-size="10" font-weight="400" font-style="normal" 
>
<text fill="#000000" fill-opacity="1" stroke="none" xml:space="preserve" x="0" y="7" font-family="DejaVu Sans" font-size="10" font-weight="400" font-style="normal" 
 >200</text>
</g>

<g fill="none" stroke="#000000" stroke-opacity="1" stroke-width="1" stroke-linecap="square" stroke-linejoin="bevel" transform="matrix(1,0,0,1,1081,685)"
font-family="DejaVu Sans" font-size="10" font-weight="400" font-style="normal" 
>
</g>

<g fill="none" stroke="#000000" stroke-opacity="1" stroke-width="1" stroke-linecap="square" stroke-linejoin="bevel" transform="matrix(1,0,0,1,0,0)"
font-family="DejaVu Sans" font-size="10" font-weight="400" font-style="normal" 
>
</g>

<g fill="none" stroke="#000000" stroke-opacity="1" stroke-width="1" stroke-linecap="square" stroke-linejoin="bevel" transform="matrix(1,0,0,1,1342,685)"
font-family="DejaVu Sans" font-size="10" font-weight="400" font-style="normal" 
>
<text fill="#000000" fill-opacity="1" stroke="none" xml:space="preserve" x="0" y="7" font-family="DejaVu Sans" font-size="10" font-weight="400" font-style="normal" 
 >250</text>
</g>

<g fill="none" stroke="#000000" stroke-opacity="1" stroke-width="1" stroke-linecap="square" stroke-linejoin="bevel" transform="matrix(1,0,0,1,1342,685)"
font-family="DejaVu Sans" font-size="10" font-weight="400" font-style="normal" 
>
</g>

<g fill="none" stroke="#000000" stroke-opacity="1" stroke-width="1" stroke-linecap="square" stroke-linejoin="bevel" transform="matrix(1,0,0,1,0,0)"
font-family="DejaVu Sans" font-size="10" font-weight="400" font-style="normal" 
>
</g>

<g fill="none" stroke="#000000" stroke-opacity="1" stroke-width="1" stroke-linecap="square" stroke-linejoin="bevel" transform="matrix(1,0,0,1,0,0)"
font-family="DejaVu Sans" font-size="10" font-weight="400" font-style="normal" 
>
<polyline fill="none" vector-effect="non-scaling-stroke" points="99,677 99,680 " />
<polyline fill="none" vector-effect="non-scaling-stroke" points="151,677 151,680 " />
<polyline fill="none" vector-effect="non-scaling-stroke" points="204,677 204,680 " />
<polyline fill="none" vector-effect="non-scaling-stroke" points="256,677 256,680 " />
<polyline fill="none" vector-effect="non-scaling-stroke" points="360,677 360,680 " />
<polyline fill="none" vector-effect="non-scaling-stroke" points="412,677 412,680 " />
<polyline fill="none" vector-effect="non-scaling-stroke" points="465,677 465,680 " />
<polyline fill="none" vector-effect="non-scaling-stroke" points="517,677 517,680 " />
<polyline fill="none" vector-effect="non-scaling-stroke" points="621,677 621,680 " />
<polyline fill="none" vector-effect="non-scaling-stroke" points="673,677 673,680 " />
<polyline fill="none" vector-effect="non-scaling-stroke" points="726,677 726,680 " />
<polyline fill="none" vector-effect="non-scaling-stroke" points="778,677 778,680 " />
<polyline fill="none" vector-effect="non-scaling-stroke" points="882,677 882,680 " />
<polyline fill="none" vector-effect="non-scaling-stroke" points="934,677 934,680 " />
<polyline fill="none" vector-effect="non-scaling-stroke" points="987,677 987,680 " />
<polyline fill="none" vector-effect="non-scaling-stroke" points="1039,677 1039,680 " />
<polyline fill="none" vector-effect="non-scaling-stroke" points="1143,677 1143,680 " />
<polyline fill="none" vector-effect="non-scaling-stroke" points="1195,677 1195,680 " />
<polyline fill="none" vector-effect="non-scaling-stroke" points="1248,677 1248,680 " />
<polyline fill="none" vector-effect="non-scaling-stroke" points="1300,677 1300,680 " />
<polyline fill="none" vector-effect="non-scaling-stroke" points="47,677 47,683 " />
<polyline fill="none" vector-effect="non-scaling-stroke" points="308,677 308,683 " />
<polyline fill="none" vector-effect="non-scaling-stroke" points="569,677 569,683 " />
<polyline fill="none" vector-effect="non-scaling-stroke" points="830,677 830,683 " />
<polyline fill="none" vector-effect="non-scaling-stroke" points="1091,677 1091,683 " />
<polyline fill="none" vector-effect="non-scaling-stroke" points="1352,677 1352,683 " />
</g>

<g fill="none" stroke="#000000" stroke-opacity="1" stroke-width="1" stroke-linecap="square" stroke-linejoin="bevel" transform="matrix(1,0,0,1,0,0)"
font-family="DejaVu Sans" font-size="10" font-weight="400" font-style="normal" 
>
<polyline fill="none" vector-effect="non-scaling-stroke" points="47,677 1351,677 " />
</g>

<g fill="none" stroke="#000000" stroke-opacity="1" stroke-width="1" stroke-linecap="square" stroke-linejoin="bevel" transform="matrix(1,0,0,1,0,0)"
font-family="DejaVu Sans" font-size="10" font-weight="400" font-style="normal" 
>
</g>

<g fill="none" stroke="#000000" stroke-opacity="1" stroke-width="1" stroke-linecap="square" stroke-linejoin="bevel" transform="matrix(1,0,0,1,0,0)"
font-family="DejaVu Sans" font-size="14" font-weight="700" font-style="normal" 
>
</g>

<g fill="#ffffff" fill-opacity="1" stroke="none" transform="matrix(1,0,0,1,0,0)"
font-family="DejaVu Sans" font-size="14" font-weight="700" font-style="normal" 
>
<path vector-effect="non-scaling-stroke" fill-rule="evenodd" d="M44,21 L1361,21 L1361,674 L44,674 L44,21"/>
</g>

<g fill="none" stroke="#000000" stroke-opacity="1" stroke-width="1" stroke-linecap="square" stroke-linejoin="bevel" transform="matrix(1,0,0,1,0,0)"
font-family="DejaVu Sans" font-size="14" font-weight="700" font-style="normal" 
>
</g>

<g fill="none" stroke="#000000" stroke-opacity="1" stroke-width="1" stroke-linecap="square" stroke-linejoin="bevel" transform="matrix(1,0,0,1,0,0)"
font-family="DejaVu Sans" font-size="14" font-weight="700" font-style="normal" 
>
</g>

<g fill="none" stroke="#ff0000" stroke-opacity="1" stroke-width="2" stroke-linecap="square" stroke-linejoin="bevel" transform="matrix(1,0,0,1,0,0)"
font-family="DejaVu Sans" font-size="14" font-weight="700" font-style="normal" 
>
<polyline fill="none" vector-effect="non-scaling-stroke" points="47,134 48,134 50,134 51,134 52,134 54,134 55,134 56,134 57,134 59,134 60,134 61,134 63,134 64,134 65,134 67,134 68,134 69,134 70,134 72,134 73,134 74,134 76,134 77,134 78,134 80,134 81,134 82,134 84,134 85,134 86,134 87,134 89,134 90,134 91,134 93,134 94,134 95,134 97,134 98,134 99,134 101,134 102,134 103,134 104,134 106,134 107,134 108,134 110,134 111,134 112,134 114,134 115,134 116,134 117,134 119,134 120,134 121,134 123,134 124,134 125,134 127,134 128,134 129,134 131,134 132,134 133,134 134,134 136,134 137,134 138,134 140,134 141,134 142,134 144,134 145,134 146,134 147,134 149,134 150,134 151,134 153,134 154,134 155,134 157,134 158,134 159,134 161,134 162,134 163,134 164,134 166,134 167,134 168,134 170,134 171,134 172,134 174,134 175,134 176,134 178,134 179,134 180,134 181,134 183,134 184,134 185,134 187,134 188,134 189,134 191,134 192,134 193,134 194,134 196,134 197,134 198,134 200,134 201,134 202,134 204,134 205,134 206,134 208,134 209,134 210,134 211,134 213,134 214,134 215,134 217,134 218,134 219,134 221,134 222,134 223,134 224,134 226,134 227,134 228,134 230,134 231,134 232,134 234,134 235,134 236,134 238,134 239,134 240,134 241,134 243,134 244,134 245,134 247,134 248,134 249,134 251,134 252,134 253,134 254,134 256,134 257,134 258,134 260,134 261,134 262,134 264,134 265,134 266,134 268,134 269,134 270,134 271,134 273,134 274,135 275,135 277,135 278,135 279,135 281,135 282,135 283,135 285,135 286,135 287,135 288,135 290,135 291,135 292,135 294,135 295,135 296,135 298,135 299,135 300,135 301,135 303,135 304,135 305,135 307,135 308,135 309,135 311,135 312,135 313,135 315,135 316,135 317,135 318,135 320,135 321,135 322,135 324,135 325,135 326,135 328,135 329,135 330,135 331,135 333,135 334,135 335,135 337,135 338,136 339,136 341,136 342,136 343,136 345,136 346,136 347,136 348,136 350,136 351,136 352,136 354,136 355,136 356,136 358,136 359,136 360,136 362,136 363,136 364,136 365,136 367,136 368,136 369,136 371,136 372,136 373,136 375,136 376,136 377,136 378,136 380,136 381,136 382,136 384,136 385,136 386,136 388,136 389,136 390,136 392,137 393,137 394,137 395,137 397,137 398,137 399,137 401,137 402,138 403,138 405,138 406,138 407,138 408,138 410,138 411,138 412,138 414,138 415,138 416,138 418,138 419,138 420,138 422,138 423,138 424,138 425,138 427,139 428,139 429,139 431,139 432,139 433,139 435,138 436,138 437,138 439,138 440,138 441,138 442,138 444,138 445,138 446,139 448,139 449,139 450,139 452,139 453,139 454,139 455,140 457,140 458,140 459,140 461,141 462,141 463,141 465,141 466,141 467,142 469,142 470,142 471,142 472,142 474,142 475,142 476,142 478,143 479,143 480,143 482,143 483,143 484,143 485,143 487,143 488,143 489,143 491,143 492,143 493,143 495,143 496,143 497,143 499,143 500,143 501,143 502,143 504,143 505,143 506,143 508,143 509,143 510,143 512,143 513,143 514,144 515,144 517,144 518,145 519,145 521,146 522,146 523,147 525,147 526,148 527,148 529,148 530,149 531,149 532,149 534,150 535,150 536,150 538,150 539,151 540,151 542,151 543,151 544,151 546,152 547,152 548,152 549,152 551,152 552,152 553,152 555,153 556,153 557,153 559,153 560,153 561,153 562,153 564,153 565,152 566,152 568,152 569,152 570,152 572,152 573,152 574,152 576,153 577,153 578,153 579,154 581,154 582,155 583,156 585,157 586,158 587,159 589,160 590,161 591,162 592,162 594,163 595,163 596,164 598,165 599,165 600,165 602,166 603,166 604,167 606,167 607,168 608,168 609,168 611,169 612,169 613,169 615,170 616,170 617,170 619,170 620,170 621,170 623,171 624,170 625,170 626,170 628,170 629,170 630,170 632,170 633,170 634,170 636,170 637,170 638,170 639,170 641,170 642,171 643,171 645,172 646,173 647,175 649,177 650,179 651,181 653,183 654,184 655,186 656,187 658,189 659,190 660,191 662,192 663,193 664,194 666,195 667,196 668,197 669,198 671,198 672,199 673,200 675,200 676,201 677,202 679,202 680,203 681,203 683,204 684,204 685,204 686,204 688,204 689,204 690,204 692,204 693,204 694,204 696,204 697,204 698,204 700,204 701,203 702,203 703,203 705,203 706,204 707,204 709,205 710,206 711,207 713,210 714,212 715,216 716,219 718,223 719,227 720,230 722,233 723,236 724,239 726,241 727,243 728,245 730,247 731,249 732,250 733,252 735,253 736,255 737,256 739,258 740,259 741,260 743,261 744,262 745,263 746,264 748,265 749,266 750,266 752,267 753,267 754,267 756,267 757,266 758,266 760,266 761,266 762,266 763,265 765,265 766,265 767,265 769,265 770,265 771,265 773,265 774,265 775,265 776,265 778,266 779,268 780,271 782,274 783,279 784,284 786,291 787,298 788,304 790,311 791,316 792,322 793,327 795,331 796,335 797,338 799,342 800,345 801,348 803,350 804,353 805,355 807,358 808,360 809,362 810,364 812,366 813,367 814,369 816,370 817,372 818,373 820,373 821,374 822,374 823,374 825,373 826,373 827,373 829,372 830,372 831,372 833,372 834,371 835,371 837,371 838,370 839,370 840,370 842,370 843,369 844,369 846,369 847,369 848,368 850,368 851,368 852,368 853,369 855,370 856,371 857,374 859,377 860,383 861,390 863,398 864,407 865,419 867,430 868,440 869,450 870,459 872,467 873,474 874,480 876,486 877,491 878,495 880,499 881,503 882,506 884,509 885,512 886,515 887,517 889,519 890,521 891,522 893,524 894,525 895,525 897,525 898,525 899,525 900,524 902,524 903,523 904,523 906,523 907,522 908,522 910,521 911,521 912,521 914,520 915,520 916,519 917,519 919,519 920,518 921,518 923,517 924,517 925,517 927,516 928,516 929,515 930,515 932,515 933,514 934,514 936,513 937,513 938,513 940,512 941,512 942,511 944,511 945,511 946,510 947,510 949,510 950,509 951,509 953,508 954,508 955,508 957,507 958,507 959,507 961,506 962,506 963,505 964,505 966,505 967,504 968,504 970,504 971,503 972,503 974,503 975,502 976,502 977,501 979,501 980,501 981,500 983,500 984,500 985,499 987,499 988,499 989,498 991,498 992,498 993,497 994,497 996,497 997,496 998,496 1000,496 1001,495 1002,495 1004,495 1005,494 1006,494 1007,494 1009,493 1010,493 1011,493 1013,492 1014,492 1015,492 1017,491 1018,491 1019,491 1021,490 1022,490 1023,490 1024,489 1026,489 1027,489 1028,488 1030,488 1031,488 1032,487 1034,487 1035,487 1036,487 1037,486 1039,486 1040,486 1041,485 1043,485 1044,485 1045,484 1047,484 1048,484 1049,483 1051,483 1052,483 1053,483 1054,482 1056,482 1057,482 1058,481 1060,481 1061,481 1062,480 1064,480 1065,480 1066,480 1068,479 1069,479 1070,479 1071,478 1073,478 1074,478 1075,478 1077,477 1078,477 1079,477 1081,476 1082,476 1083,476 1084,476 1086,475 1087,475 1088,475 1090,474 1091,474 1092,474 1094,474 1095,473 1096,473 1098,473 1099,473 1100,472 1101,472 1103,472 1104,471 1105,471 1107,471 1108,471 1109,470 1111,470 1112,470 1113,470 1114,469 1116,469 1117,469 1118,469 1120,468 1121,468 1122,468 1124,467 1125,467 1126,467 1128,467 1129,466 1130,466 1131,466 1133,466 1134,465 1135,465 1137,465 1138,465 1139,464 1141,464 1142,464 1143,464 1145,463 1146,463 1147,463 1148,463 1150,462 1151,462 1152,462 1154,462 1155,461 1156,461 1158,461 1159,461 1160,461 1161,460 1163,460 1164,460 1165,460 1167,459 1168,459 1169,459 1171,459 1172,458 1173,458 1175,458 1176,458 1177,457 1178,457 1180,457 1181,457 1182,457 1184,456 1185,456 1186,456 1188,456 1189,455 1190,455 1191,455 1193,455 1194,455 1195,454 1197,454 1198,454 1199,454 1201,453 1202,453 1203,453 1205,453 1206,453 1207,452 1208,452 1210,452 1211,452 1212,452 1214,451 1215,451 1216,451 1218,451 1219,450 1220,450 1222,450 1223,450 1224,450 1225,449 1227,449 1228,449 1229,449 1231,449 1232,448 1233,448 1235,448 1236,448 1237,448 1238,447 1240,447 1241,447 1242,447 1244,447 1245,446 1246,446 1248,446 1249,446 1250,446 1252,446 1253,445 1254,445 1255,445 1257,445 1258,445 1259,444 1261,444 1262,444 1263,444 1265,444 1266,444 1267,443 1268,443 1270,443 1271,443 1272,443 1274,442 1275,442 1276,442 1278,442 1279,442 1280,442 1282,441 1283,441 1284,441 1285,441 1287,441 1288,441 1289,441 1291,440 1292,440 1293,440 1295,440 1296,440 1297,440 1298,440 1300,439 1301,439 1302,439 1304,439 1305,439 1306,439 1308,439 1309,439 1310,439 1312,439 1313,439 1314,440 1315,440 1317,441 1318,441 1319,443 1321,445 1322,448 1323,453 1325,460 1326,469 1327,480 1329,495 1330,511 1331,529 1332,558 1334,576 1335,593 1336,607 1338,619 1339,629 1340,637 1342,643 1343,647 1344,650 1345,653 1347,655 1348,657 1349,658 1351,659 1352,659 " />
</g>

<g fill="none" stroke="#000000" stroke-opacity="1" stroke-width="1" stroke-linecap="square" stroke-linejoin="bevel" transform="matrix(1,0,0,1,0,0)"
font-family="DejaVu Sans" font-size="14" font-weight="700" font-style="normal" 
>
</g>

<g fill="none" stroke="#000000" stroke-opacity="1" stroke-width="1" stroke-linecap="square" stroke-linejoin="bevel" transform="matrix(1,0,0,1,0,0)"
font-family="DejaVu Sans" font-size="14" font-weight="700" font-style="normal" 
>
</g>

<g fill="none" stroke="#000000" stroke-opacity="1" stroke-width="1" stroke-linecap="square" stroke-linejoin="bevel" transform="matrix(1,0,0,1,0,0)"
font-family="DejaVu Sans" font-size="14" font-weight="700" font-style="normal" 
>
</g>

<g fill="none" stroke="#0000ff" stroke-opacity="1" stroke-width="2" stroke-linecap="square" stroke-linejoin="bevel" transform="matrix(1,0,0,1,0,0)"
font-family="DejaVu Sans" font-size="14" font-weight="700" font-style="normal" 
>
<polyline fill="none" vector-effect="non-scaling-stroke" points="47,134 48,136 50,137 51,139 52,139 54,140 55,140 56,141 57,141 59,141 60,141 61,141 63,141 64,141 65,141 67,141 68,141 69,141 70,141 72,141 73,141 74,141 76,141 77,141 78,141 80,141 81,141 82,141 84,141 85,141 86,141 87,141 89,141 90,141 91,141 93,141 94,141 95,141 97,141 98,141 99,141 101,141 102,141 103,141 104,141 106,141 107,141 108,141 110,141 111,141 112,141 114,141 115,141 116,141 117,141 119,141 120,141 121,141 123,141 124,141 125,141 127,141 128,141 129,141 131,141 132,141 133,141 134,141 136,141 137,141 138,141 140,141 141,141 142,141 144,141 145,141 146,141 147,141 149,141 150,141 151,141 153,141 154,141 155,141 157,141 158,141 159,141 161,141 162,141 163,141 164,141 166,141 167,141 168,141 170,141 171,141 172,141 174,141 175,141 176,141 178,141 179,141 180,141 181,141 183,141 184,141 185,141 187,141 188,141 189,141 191,141 192,141 193,141 194,141 196,141 197,141 198,141 200,141 201,141 202,141 204,141 205,141 206,141 208,141 209,141 210,141 211,141 213,141 214,141 215,141 217,141 218,141 219,141 221,141 222,141 223,141 224,141 226,141 227,141 228,141 230,141 231,141 232,141 234,141 235,141 236,141 238,141 239,141 240,141 241,141 243,141 244,141 245,141 247,141 248,141 249,141 251,141 252,141 253,141 254,141 256,141 257,141 258,141 260,141 261,142 262,141 264,141 265,141 266,141 268,141 269,141 270,141 271,141 273,141 274,141 275,141 277,141 278,141 279,142 281,142 282,142 283,142 285,142 286,142 287,142 288,142 290,142 291,142 292,142 294,142 295,142 296,142 298,142 299,142 300,142 301,142 303,142 304,142 305,142 307,142 308,142 309,142 311,142 312,142 313,142 315,142 316,142 317,142 318,142 320,142 321,142 322,142 324,142 325,142 326,142 328,142 329,142 330,142 331,142 333,142 334,142 335,142 337,142 338,142 339,142 341,142 342,142 343,142 345,142 346,142 347,142 348,142 350,142 351,142 352,142 354,142 355,142 356,143 358,143 359,143 360,143 362,143 363,143 364,143 365,143 367,143 368,143 369,143 371,143 372,143 373,143 375,143 376,143 377,143 378,143 380,143 381,143 382,143 384,143 385,143 386,143 388,143 389,143 390,142 392,143 393,143 394,143 395,143 397,143 398,143 399,143 401,143 402,143 403,143 405,143 406,143 407,143 408,143 410,144 411,144 412,144 414,144 415,144 416,144 418,144 419,144 420,144 422,144 423,144 424,144 425,144 427,144 428,145 429,145 431,145 432,145 433,145 435,145 436,145 437,145 439,145 440,145 441,145 442,145 444,145 445,145 446,145 448,146 449,146 450,146 452,146 453,146 454,144 455,144 457,144 458,144 459,145 461,145 462,145 463,145 465,145 466,145 467,145 469,146 470,146 471,146 472,146 474,146 475,146 476,146 478,146 479,147 480,147 482,147 483,147 484,147 485,147 487,147 488,148 489,148 491,148 492,148 493,148 495,148 496,148 497,149 499,149 500,149 501,149 502,149 504,149 505,149 506,149 508,150 509,150 510,150 512,150 513,150 514,150 515,150 517,150 518,147 519,147 521,147 522,148 523,148 525,148 526,149 527,149 529,149 530,149 531,150 532,150 534,150 535,150 536,151 538,151 539,151 540,152 542,152 543,152 544,152 546,153 547,153 548,153 549,153 551,154 552,154 553,154 555,154 556,155 557,155 559,155 560,155 561,156 562,156 564,156 565,156 566,157 568,157 569,157 570,157 572,158 573,158 574,158 576,158 577,159 578,159 579,159 581,159 582,160 583,153 585,153 586,154 587,154 589,155 590,156 591,156 592,157 594,157 595,158 596,158 598,159 599,159 600,160 602,160 603,161 604,161 606,162 607,162 608,163 609,163 611,164 612,164 613,165 615,165 616,166 617,166 619,167 620,167 621,168 623,168 624,169 625,169 626,170 628,170 629,171 630,171 632,172 633,172 634,173 636,173 637,174 638,174 639,175 641,175 642,176 643,176 645,177 646,177 647,178 649,164 650,165 651,166 653,167 654,168 655,169 656,171 658,172 659,173 660,174 662,175 663,176 664,177 666,178 667,179 668,180 669,181 671,182 672,183 673,184 675,185 676,186 677,187 679,188 680,189 681,190 683,191 684,192 685,193 686,194 688,195 689,195 690,196 692,197 693,198 694,199 696,200 697,201 698,202 700,203 701,204 702,205 703,206 705,206 706,207 707,208 709,209 710,210 711,211 713,212 714,213 715,187 716,189 718,191 719,193 720,195 722,197 723,199 724,201 726,203 727,205 728,207 730,209 731,211 732,213 733,215 735,217 736,219 737,221 739,223 740,225 741,227 743,228 744,230 745,232 746,234 748,236 749,238 750,239 752,241 753,243 754,245 756,246 757,248 758,250 760,251 761,253 762,255 763,257 765,258 766,260 767,261 769,263 770,265 771,266 773,268 774,269 775,271 776,273 778,274 779,276 780,277 782,279 783,280 784,282 786,235 787,239 788,243 790,246 791,250 792,254 793,258 795,262 796,266 797,270 799,274 800,278 801,281 803,285 804,289 805,292 807,296 808,299 809,303 810,306 812,310 813,313 814,316 816,320 817,323 818,326 820,329 821,332 822,335 823,338 825,341 826,344 827,347 829,350 830,353 831,356 833,359 834,361 835,364 837,367 838,370 839,372 840,375 842,377 843,380 844,382 846,385 847,387 848,390 850,392 851,395 852,397 853,399 855,402 856,404 857,406 859,408 860,411 861,413 863,415 864,417 865,339 867,347 868,354 869,361 870,368 872,375 873,382 874,389 876,396 877,403 878,410 880,417 881,423 882,429 884,436 885,442 886,448 887,453 889,459 890,464 891,470 893,475 894,480 895,485 897,490 898,495 899,500 900,505 902,510 903,515 904,519 906,524 907,529 908,533 910,538 911,542 912,547 914,552 915,556 916,561 917,566 919,571 920,576 921,581 923,585 924,590 925,596 927,601 928,606 929,610 930,615 932,620 933,624 934,627 936,631 937,634 938,636 940,638 941,640 942,641 944,642 945,643 946,644 947,644 949,645 950,645 951,646 953,646 954,647 955,647 957,647 958,647 959,648 961,648 962,648 963,648 964,648 966,649 967,649 968,649 970,649 971,649 972,649 974,649 975,650 976,650 977,650 979,650 980,650 981,650 983,650 984,650 985,650 987,650 988,651 989,651 991,651 992,651 993,651 994,651 996,651 997,651 998,651 1000,651 1001,651 1002,651 1004,651 1005,651 1006,651 1007,652 1009,652 1010,652 1011,652 1013,652 1014,652 1015,652 1017,652 1018,652 1019,652 1021,652 1022,652 1023,652 1024,652 1026,652 1027,652 1028,652 1030,652 1031,652 1032,652 1034,652 1035,652 1036,652 1037,652 1039,652 1040,652 1041,652 1043,652 1044,652 1045,652 1047,652 1048,652 1049,652 1051,652 1052,652 1053,652 1054,652 1056,652 1057,652 1058,652 1060,652 1061,652 1062,652 1064,652 1065,652 1066,652 1068,652 1069,652 1070,652 1071,652 1073,652 1074,652 1075,652 1077,652 1078,652 1079,652 1081,652 1082,652 1083,652 1084,652 1086,652 1087,652 1088,652 1090,652 1091,652 1092,652 1094,652 1095,652 1096,652 1098,652 1099,652 1100,652 1101,652 1103,652 1104,652 1105,652 1107,652 1108,652 1109,652 1111,652 1112,652 1113,652 1114,652 1116,652 1117,652 1118,652 1120,652 1121,652 1122,652 1124,652 1125,651 1126,651 1128,651 1129,651 1130,651 1131,651 1133,651 1134,651 1135,651 1137,651 1138,651 1139,651 1141,651 1142,651 1143,651 1145,651 1146,651 1147,651 1148,651 1150,651 1151,651 1152,651 1154,651 1155,651 1156,651 1158,651 1159,651 1160,651 1161,651 1163,651 1164,651 1165,651 1167,651 1168,651 1169,651 1171,651 1172,651 1173,651 1175,651 1176,651 1177,651 1178,651 1180,651 1181,651 1182,651 1184,651 1185,651 1186,651 1188,651 1189,651 1190,651 1191,651 1193,651 1194,651 1195,651 1197,651 1198,651 1199,650 1201,650 1202,650 1203,650 1205,650 1206,650 1207,650 1208,650 1210,650 1211,650 1212,650 1214,650 1215,650 1216,650 1218,650 1219,650 1220,650 1222,650 1223,650 1224,650 1225,650 1227,650 1228,650 1229,650 1231,650 1232,650 1233,650 1235,650 1236,650 1237,650 1238,650 1240,650 1241,650 1242,650 1244,650 1245,650 1246,650 1248,650 1249,650 1250,650 1252,650 1253,650 1254,650 1255,650 1257,650 1258,650 1259,650 1261,650 1262,650 1263,650 1265,650 1266,650 1267,650 1268,650 1270,650 1271,650 1272,650 1274,650 1275,650 1276,650 1278,650 1279,650 1280,650 1282,650 1283,650 1284,650 1285,650 1287,650 1288,650 1289,650 1291,650 1292,650 1293,650 1295,650 1296,650 1297,650 1298,650 1300,650 1301,650 1302,649 1304,649 1305,649 1306,649 1308,649 1309,649 1310,649 1312,649 1313,649 1314,649 1315,649 1317,649 1318,649 1319,649 1321,649 1322,649 1323,649 1325,649 1326,649 1327,649 1329,649 1330,649 1331,649 1332,611 1334,629 1335,640 1336,648 1338,653 1339,656 1340,659 1342,660 1343,662 1344,662 1345,663 1347,664 1348,664 1349,664 1351,665 1352,665 " />
</g>

<g fill="none" stroke="#000000" stroke-opacity="1" stroke-width="1" stroke-linecap="square" stroke-linejoin="bevel" transform="matrix(1,0,0,1,0,0)"
font-family="DejaVu Sans" font-size="14" font-weight="700" font-style="normal" 
>
</g>

<g fill="none" stroke="#000000" stroke-opacity="1" stroke-width="1" stroke-linecap="square" stroke-linejoin="bevel" transform="matrix(1,0,0,1,0,0)"
font-family="DejaVu Sans" font-size="14" font-weight="700" font-style="normal" 
>
</g>

<g fill="none" stroke="#000000" stroke-opacity="1" stroke-width="1" stroke-linecap="square" stroke-linejoin="bevel" transform="matrix(1,0,0,1,0,0)"
font-family="DejaVu Sans" font-size="14" font-weight="700" font-style="normal" 
>
</g>

<g fill="none" stroke="#00e600" stroke-opacity="1" stroke-width="2" stroke-linecap="square" stroke-linejoin="bevel" transform="matrix(1,0,0,1,0,0)"
font-family="DejaVu Sans" font-size="14" font-weight="700" font-style="normal" 
>
<polyline fill="none" vector-effect="non-scaling-stroke" points="47,241 48,251 50,252 51,252 52,252 54,252 55,252 56,252 57,252 59,252 60,252 61,252 63,252 64,252 65,252 67,252 68,252 69,252 70,252 72,252 73,252 74,252 76,252 77,252 78,252 80,252 81,252 82,252 84,252 85,252 86,252 87,252 89,252 90,252 91,252 93,252 94,252 95,252 97,252 98,252 99,252 101,252 102,252 103,252 104,252 106,252 107,252 108,252 110,252 111,252 112,252 114,252 115,252 116,252 117,252 119,252 120,252 121,252 123,252 124,252 125,252 127,252 128,252 129,252 131,252 132,252 133,252 134,252 136,252 137,252 138,252 140,252 141,252 142,252 144,252 145,252 146,252 147,252 149,252 150,252 151,252 153,252 154,252 155,252 157,252 158,252 159,252 161,252 162,252 163,252 164,252 166,252 167,252 168,252 170,252 171,252 172,252 174,252 175,252 176,252 178,252 179,252 180,252 181,252 183,252 184,252 185,252 187,252 188,252 189,252 191,252 192,252 193,252 194,252 196,252 197,252 198,252 200,252 201,252 202,252 204,252 205,252 206,252 208,252 209,252 210,252 211,252 213,252 214,252 215,252 217,252 218,252 219,252 221,252 222,252 223,252 224,252 226,252 227,252 228,252 230,252 231,252 232,252 234,252 235,252 236,252 238,252 239,252 240,252 241,252 243,252 244,252 245,252 247,252 248,252 249,252 251,252 252,252 253,252 254,252 256,252 257,252 258,252 260,252 261,252 262,252 264,252 265,252 266,252 268,252 269,252 270,252 271,252 273,252 274,252 275,252 277,252 278,252 279,252 281,252 282,252 283,252 285,252 286,252 287,252 288,252 290,252 291,252 292,252 294,252 295,252 296,252 298,252 299,252 300,252 301,252 303,252 304,252 305,252 307,252 308,252 309,252 311,252 312,252 313,252 315,252 316,252 317,252 318,252 320,252 321,252 322,252 324,252 325,252 326,252 328,252 329,252 330,252 331,252 333,252 334,252 335,252 337,252 338,252 339,252 341,252 342,252 343,252 345,252 346,252 347,252 348,252 350,252 351,252 352,252 354,252 355,252 356,252 358,252 359,252 360,252 362,252 363,252 364,252 365,252 367,252 368,252 369,252 371,252 372,252 373,252 375,252 376,252 377,252 378,252 380,252 381,252 382,252 384,252 385,252 386,252 388,252 389,252 390,251 392,251 393,251 394,252 395,252 397,252 398,252 399,252 401,252 402,252 403,252 405,252 406,252 407,252 408,252 410,252 411,252 412,252 414,252 415,252 416,252 418,252 419,252 420,252 422,252 423,252 424,252 425,252 427,252 428,252 429,252 431,252 432,252 433,252 435,252 436,252 437,252 439,252 440,252 441,252 442,252 444,252 445,253 446,253 448,253 449,253 450,253 452,253 453,253 454,251 455,251 457,251 458,251 459,251 461,251 462,251 463,251 465,252 466,252 467,252 469,252 470,252 471,252 472,252 474,252 475,252 476,252 478,252 479,252 480,252 482,252 483,252 484,252 485,252 487,252 488,252 489,253 491,253 492,253 493,253 495,253 496,253 497,253 499,253 500,253 501,253 502,253 504,253 505,253 506,253 508,253 509,253 510,253 512,253 513,253 514,253 515,253 517,254 518,250 519,250 521,251 522,251 523,251 525,251 526,251 527,251 529,251 530,251 531,251 532,252 534,252 535,252 536,252 538,252 539,252 540,252 542,252 543,252 544,253 546,253 547,253 548,253 549,253 551,253 552,253 553,253 555,253 556,253 557,254 559,254 560,254 561,254 562,254 564,254 565,254 566,254 568,254 569,254 570,254 572,255 573,255 574,255 576,255 577,255 578,255 579,255 581,255 582,255 583,249 585,249 586,250 587,250 589,250 590,250 591,250 592,251 594,251 595,251 596,251 598,251 599,252 600,252 602,252 603,252 604,253 606,253 607,253 608,253 609,253 611,254 612,254 613,254 615,254 616,254 617,255 619,255 620,255 621,255 623,255 624,256 625,256 626,256 628,256 629,256 630,256 632,257 633,257 634,257 636,257 637,257 638,258 639,258 641,258 642,258 643,258 645,258 646,259 647,259 649,247 650,247 651,247 653,248 654,248 655,249 656,249 658,250 659,250 660,250 662,251 663,251 664,252 666,252 667,253 668,253 669,253 671,254 672,254 673,255 675,255 676,255 677,256 679,256 680,257 681,257 683,257 684,258 685,258 686,259 688,259 689,259 690,260 692,260 693,260 694,261 696,261 697,262 698,262 700,262 701,263 702,263 703,263 705,264 706,264 707,264 709,265 710,265 711,265 713,266 714,266 715,242 716,242 718,243 719,244 720,245 722,246 723,247 724,248 726,248 727,249 728,250 730,251 731,252 732,253 733,254 735,255 736,256 737,256 739,257 740,258 741,259 743,260 744,261 745,262 746,262 748,263 749,264 750,265 752,266 753,266 754,267 756,268 757,269 758,270 760,270 761,271 762,272 763,273 765,273 766,274 767,275 769,276 770,276 771,277 773,278 774,279 775,279 776,280 778,281 779,281 780,282 782,283 783,283 784,284 786,232 787,233 788,235 790,237 791,239 792,241 793,243 795,245 796,247 797,250 799,252 800,254 801,256 803,258 804,260 805,262 807,264 808,266 809,268 810,270 812,272 813,273 814,275 816,277 817,279 818,281 820,283 821,285 822,287 823,288 825,290 826,292 827,294 829,296 830,297 831,299 833,301 834,303 835,305 837,306 838,308 839,310 840,312 842,313 843,315 844,317 846,318 847,320 848,322 850,323 851,325 852,327 853,328 855,330 856,332 857,333 859,335 860,337 861,338 863,340 864,342 865,222 867,220 868,223 869,227 870,233 872,239 873,245 874,251 876,257 877,264 878,270 880,276 881,283 882,289 884,296 885,303 886,309 887,316 889,323 890,330 891,338 893,345 894,352 895,360 897,368 898,376 899,384 900,393 902,402 903,411 904,420 906,430 907,440 908,450 910,461 911,472 912,483 914,495 915,507 916,519 917,532 919,544 920,557 921,570 923,583 924,596 925,608 927,620 928,630 929,640 930,647 932,653 933,657 934,659 936,661 937,663 938,664 940,664 941,665 942,665 944,665 945,666 946,666 947,666 949,666 950,666 951,666 953,667 954,667 955,667 957,667 958,667 959,667 961,667 962,667 963,667 964,667 966,667 967,667 968,667 970,667 971,667 972,667 974,667 975,667 976,667 977,667 979,667 980,667 981,667 983,667 984,667 985,667 987,667 988,668 989,668 991,668 992,668 993,668 994,668 996,668 997,668 998,668 1000,668 1001,668 1002,668 1004,668 1005,668 1006,668 1007,668 1009,668 1010,668 1011,668 1013,668 1014,668 1015,668 1017,668 1018,668 1019,668 1021,668 1022,668 1023,668 1024,668 1026,668 1027,668 1028,668 1030,668 1031,668 1032,668 1034,668 1035,668 1036,668 1037,668 1039,668 1040,668 1041,668 1043,668 1044,668 1045,668 1047,668 1048,668 1049,668 1051,668 1052,668 1053,668 1054,668 1056,668 1057,668 1058,668 1060,668 1061,668 1062,668 1064,668 1065,668 1066,668 1068,668 1069,668 1070,668 1071,668 1073,668 1074,668 1075,668 1077,668 1078,668 1079,668 1081,668 1082,668 1083,668 1084,668 1086,668 1087,668 1088,668 1090,668 1091,668 1092,668 1094,668 1095,668 1096,668 1098,668 1099,668 1100,668 1101,668 1103,668 1104,668 1105,668 1107,668 1108,668 1109,668 1111,668 1112,668 1113,668 1114,668 1116,668 1117,668 1118,668 1120,668 1121,668 1122,668 1124,668 1125,668 1126,668 1128,668 1129,668 1130,668 1131,668 1133,668 1134,668 1135,668 1137,668 1138,668 1139,668 1141,668 1142,668 1143,668 1145,668 1146,668 1147,668 1148,668 1150,668 1151,668 1152,668 1154,668 1155,668 1156,668 1158,668 1159,668 1160,668 1161,668 1163,668 1164,668 1165,668 1167,668 1168,668 1169,668 1171,668 1172,668 1173,668 1175,668 1176,668 1177,668 1178,668 1180,668 1181,668 1182,668 1184,668 1185,668 1186,668 1188,668 1189,668 1190,668 1191,668 1193,668 1194,668 1195,668 1197,668 1198,668 1199,668 1201,668 1202,668 1203,668 1205,668 1206,668 1207,668 1208,668 1210,668 1211,668 1212,668 1214,668 1215,668 1216,668 1218,668 1219,668 1220,668 1222,668 1223,668 1224,668 1225,668 1227,668 1228,667 1229,667 1231,667 1232,667 1233,667 1235,667 1236,667 1237,667 1238,667 1240,667 1241,667 1242,667 1244,667 1245,667 1246,667 1248,667 1249,667 1250,667 1252,667 1253,667 1254,667 1255,667 1257,667 1258,667 1259,667 1261,667 1262,667 1263,667 1265,667 1266,667 1267,667 1268,667 1270,667 1271,667 1272,667 1274,667 1275,667 1276,667 1278,667 1279,667 1280,667 1282,667 1283,667 1284,667 1285,667 1287,667 1288,667 1289,667 1291,667 1292,667 1293,667 1295,667 1296,667 1297,667 1298,667 1300,667 1301,667 1302,667 1304,667 1305,667 1306,667 1308,667 1309,667 1310,667 1312,667 1313,667 1314,667 1315,667 1317,667 1318,667 1319,667 1321,667 1322,666 1323,666 1325,666 1326,666 1327,666 1329,666 1330,666 1331,666 1332,654 1334,654 1335,656 1336,660 1338,662 1339,664 1340,666 1342,667 1343,668 1344,668 1345,669 1347,669 1348,670 1349,670 1351,670 1352,670 " />
</g>

<g fill="none" stroke="#000000" stroke-opacity="1" stroke-width="1" stroke-linecap="square" stroke-linejoin="bevel" transform="matrix(1,0,0,1,0,0)"
font-family="DejaVu Sans" font-size="14" font-weight="700" font-style="normal" 
>
</g>

<g fill="none" stroke="#000000" stroke-opacity="1" stroke-width="1" stroke-linecap="square" stroke-linejoin="bevel" transform="matrix(1,0,0,1,0,0)"
font-family="DejaVu Sans" font-size="14" font-weight="700" font-style="normal" 
>
</g>

<g fill="none" stroke="#000000" stroke-opacity="1" stroke-width="1" stroke-linecap="square" stroke-linejoin="bevel" transform="matrix(1,0,0,1,0,0)"
font-family="DejaVu Sans" font-size="14" font-weight="700" font-style="normal" 
>
</g>

<g fill="none" stroke="#00bef0" stroke-opacity="1" stroke-width="2" stroke-linecap="square" stroke-linejoin="bevel" transform="matrix(1,0,0,1,0,0)"
font-family="DejaVu Sans" font-size="14" font-weight="700" font-style="normal" 
>
<polyline fill="none" vector-effect="non-scaling-stroke" points="47,671 48,661 50,661 51,660 52,660 54,660 55,660 56,660 57,660 59,660 60,660 61,660 63,660 64,660 65,660 67,660 68,660 69,660 70,660 72,660 73,660 74,660 76,660 77,660 78,660 80,660 81,660 82,660 84,660 85,660 86,660 87,660 89,660 90,660 91,660 93,660 94,660 95,660 97,660 98,660 99,660 101,660 102,660 103,660 104,660 106,660 107,660 108,660 110,660 111,660 112,660 114,660 115,660 116,660 117,660 119,660 120,660 121,660 123,660 124,660 125,660 127,660 128,660 129,660 131,660 132,660 133,660 134,660 136,660 137,660 138,660 140,660 141,660 142,660 144,660 145,660 146,660 147,660 149,660 150,660 151,660 153,660 154,660 155,660 157,660 158,660 159,660 161,660 162,660 163,660 164,660 166,660 167,660 168,660 170,660 171,660 172,660 174,660 175,660 176,660 178,660 179,660 180,660 181,660 183,660 184,660 185,660 187,660 188,660 189,660 191,660 192,660 193,660 194,660 196,660 197,660 198,660 200,660 201,660 202,660 204,660 205,660 206,660 208,660 209,660 210,660 211,660 213,660 214,660 215,660 217,660 218,660 219,660 221,660 222,660 223,660 224,660 226,660 227,660 228,660 230,660 231,660 232,660 234,660 235,660 236,660 238,660 239,660 240,660 241,660 243,660 244,660 245,660 247,660 248,660 249,660 251,660 252,660 253,660 254,660 256,660 257,660 258,660 260,660 261,660 262,660 264,660 265,660 266,660 268,660 269,660 270,660 271,660 273,660 274,660 275,660 277,660 278,660 279,660 281,660 282,660 283,660 285,660 286,660 287,660 288,660 290,660 291,660 292,660 294,660 295,660 296,660 298,660 299,660 300,660 301,660 303,660 304,660 305,660 307,660 308,660 309,660 311,660 312,660 313,660 315,660 316,660 317,660 318,660 320,660 321,660 322,660 324,660 325,660 326,660 328,660 329,660 330,660 331,660 333,660 334,660 335,660 337,660 338,660 339,660 341,660 342,660 343,660 345,660 346,660 347,660 348,660 350,660 351,660 352,660 354,660 355,660 356,660 358,660 359,660 360,660 362,660 363,660 364,660 365,660 367,660 368,660 369,660 371,660 372,660 373,660 375,660 376,660 377,660 378,660 380,660 381,660 382,660 384,660 385,660 386,660 388,660 389,660 390,660 392,660 393,660 394,660 395,660 397,660 398,660 399,660 401,660 402,660 403,660 405,660 406,660 407,660 408,660 410,660 411,660 412,660 414,660 415,660 416,660 418,660 419,660 420,660 422,660 423,660 424,660 425,660 427,660 428,660 429,660 431,660 432,660 433,660 435,660 436,660 437,660 439,660 440,660 441,660 442,660 444,660 445,660 446,660 448,660 449,660 450,660 452,660 453,660 454,660 455,660 457,660 458,660 459,660 461,660 462,660 463,660 465,660 466,660 467,660 469,660 470,660 471,660 472,660 474,660 475,660 476,660 478,660 479,660 480,660 482,660 483,660 484,660 485,660 487,660 488,660 489,660 491,660 492,660 493,660 495,660 496,660 497,660 499,660 500,660 501,660 502,660 504,660 505,660 506,660 508,660 509,660 510,660 512,660 513,660 514,660 515,660 517,660 518,660 519,660 521,660 522,660 523,660 525,660 526,660 527,660 529,660 530,660 531,660 532,660 534,660 535,660 536,660 538,660 539,660 540,660 542,660 543,660 544,660 546,660 547,660 548,660 549,660 551,660 552,660 553,660 555,660 556,660 557,660 559,660 560,660 561,660 562,660 564,660 565,660 566,660 568,660 569,660 570,660 572,660 573,660 574,660 576,660 577,660 578,660 579,660 581,660 582,660 583,660 585,660 586,660 587,660 589,660 590,660 591,660 592,660 594,660 595,660 596,660 598,660 599,660 600,660 602,660 603,660 604,660 606,660 607,660 608,660 609,660 611,660 612,660 613,660 615,660 616,660 617,660 619,660 620,660 621,660 623,660 624,660 625,660 626,660 628,660 629,659 630,659 632,659 633,659 634,659 636,659 637,659 638,659 639,659 641,659 642,659 643,659 645,659 646,659 647,659 649,660 650,660 651,660 653,660 654,660 655,660 656,659 658,659 659,659 660,659 662,659 663,659 664,659 666,659 667,659 668,659 669,659 671,659 672,659 673,659 675,659 676,659 677,659 679,659 680,659 681,659 683,659 684,659 685,659 686,659 688,659 689,659 690,659 692,659 693,659 694,658 696,658 697,658 698,658 700,658 701,658 702,658 703,658 705,658 706,658 707,658 709,658 710,658 711,658 713,658 714,658 715,658 716,659 718,659 719,659 720,659 722,659 723,658 724,658 726,658 727,658 728,658 730,658 731,658 732,658 733,658 735,658 736,658 737,658 739,657 740,657 741,657 743,657 744,657 745,657 746,657 748,657 749,657 750,657 752,657 753,657 754,656 756,656 757,656 758,656 760,656 761,656 762,656 763,656 765,656 766,656 767,656 769,655 770,655 771,655 773,655 774,655 775,655 776,655 778,655 779,655 780,655 782,655 783,654 784,654 786,656 787,657 788,657 790,656 791,656 792,656 793,656 795,655 796,655 797,655 799,655 800,654 801,654 803,654 804,654 805,653 807,653 808,653 809,653 810,652 812,652 813,652 814,651 816,651 817,651 818,651 820,650 821,650 822,650 823,649 825,649 826,649 827,648 829,648 830,648 831,647 833,647 834,646 835,646 837,646 838,645 839,645 840,644 842,644 843,643 844,643 846,643 847,642 848,642 850,641 851,641 852,640 853,640 855,639 856,639 857,638 859,638 860,637 861,636 863,636 864,635 865,635 867,642 868,645 869,645 870,645 872,644 873,643 874,642 876,641 877,639 878,638 880,636 881,634 882,632 884,630 885,628 886,626 887,623 889,621 890,618 891,615 893,611 894,608 895,604 897,600 898,595 899,591 900,586 902,580 903,574 904,568 906,562 907,555 908,547 910,539 911,531 912,522 914,512 915,502 916,491 917,480 919,468 920,455 921,442 923,428 924,414 925,399 927,384 928,368 929,352 930,337 932,321 933,307 934,294 936,283 937,275 938,271 940,269 941,269 942,270 944,271 945,273 946,274 947,276 949,278 950,280 951,282 953,283 954,285 955,287 957,289 958,291 959,292 961,294 962,296 963,298 964,299 966,301 967,303 968,304 970,306 971,308 972,309 974,311 975,313 976,314 977,316 979,317 980,319 981,320 983,322 984,323 985,325 987,326 988,328 989,329 991,331 992,332 993,334 994,335 996,336 997,338 998,339 1000,341 1001,342 1002,343 1004,345 1005,346 1006,347 1007,348 1009,350 1010,351 1011,352 1013,353 1014,355 1015,356 1017,357 1018,358 1019,359 1021,361 1022,362 1023,363 1024,364 1026,365 1027,366 1028,367 1030,368 1031,370 1032,371 1034,372 1035,373 1036,374 1037,375 1039,376 1040,377 1041,378 1043,379 1044,380 1045,381 1047,382 1048,383 1049,384 1051,385 1052,386 1053,386 1054,387 1056,388 1057,389 1058,390 1060,391 1061,392 1062,393 1064,394 1065,394 1066,395 1068,396 1069,397 1070,398 1071,399 1073,399 1074,400 1075,401 1077,402 1078,402 1079,403 1081,404 1082,405 1083,405 1084,406 1086,407 1087,408 1088,408 1090,409 1091,410 1092,411 1094,411 1095,412 1096,413 1098,413 1099,414 1100,415 1101,415 1103,416 1104,416 1105,417 1107,418 1108,418 1109,419 1111,420 1112,420 1113,421 1114,421 1116,422 1117,423 1118,423 1120,424 1121,424 1122,425 1124,425 1125,426 1126,427 1128,427 1129,428 1130,428 1131,429 1133,429 1134,430 1135,430 1137,431 1138,431 1139,432 1141,432 1142,433 1143,433 1145,434 1146,434 1147,435 1148,435 1150,435 1151,436 1152,436 1154,437 1155,437 1156,438 1158,438 1159,439 1160,439 1161,439 1163,440 1164,440 1165,441 1167,441 1168,441 1169,442 1171,442 1172,443 1173,443 1175,443 1176,444 1177,444 1178,445 1180,445 1181,445 1182,446 1184,446 1185,446 1186,447 1188,447 1189,447 1190,448 1191,448 1193,448 1194,449 1195,449 1197,449 1198,450 1199,450 1201,450 1202,451 1203,451 1205,451 1206,452 1207,452 1208,452 1210,453 1211,453 1212,453 1214,453 1215,454 1216,454 1218,454 1219,455 1220,455 1222,455 1223,455 1224,456 1225,456 1227,456 1228,456 1229,457 1231,457 1232,457 1233,457 1235,458 1236,458 1237,458 1238,458 1240,459 1241,459 1242,459 1244,459 1245,460 1246,460 1248,460 1249,460 1250,461 1252,461 1253,461 1254,461 1255,461 1257,462 1258,462 1259,462 1261,462 1262,462 1263,463 1265,463 1266,463 1267,463 1268,463 1270,464 1271,464 1272,464 1274,464 1275,464 1276,465 1278,465 1279,465 1280,465 1282,465 1283,465 1284,466 1285,466 1287,466 1288,466 1289,466 1291,467 1292,467 1293,467 1295,467 1296,467 1297,467 1298,467 1300,468 1301,468 1302,468 1304,468 1305,468 1306,468 1308,469 1309,469 1310,469 1312,469 1313,469 1314,469 1315,470 1317,470 1318,470 1319,470 1321,470 1322,470 1323,471 1325,471 1326,471 1327,471 1329,471 1330,472 1331,472 1332,78 1334,98 1335,115 1336,131 1338,146 1339,162 1340,177 1342,192 1343,207 1344,221 1345,235 1347,248 1348,260 1349,272 1351,284 1352,295 " />
</g>

<g fill="none" stroke="#000000" stroke-opacity="1" stroke-width="1" stroke-linecap="square" stroke-linejoin="bevel" transform="matrix(1,0,0,1,0,0)"
font-family="DejaVu Sans" font-size="14" font-weight="700" font-style="normal" 
>
</g>

<g fill="none" stroke="#000000" stroke-opacity="1" stroke-width="1" stroke-linecap="square" stroke-linejoin="bevel" transform="matrix(1,0,0,1,0,0)"
font-family="DejaVu Sans" font-size="14" font-weight="700" font-style="normal" 
>
</g>

<g fill="none" stroke="#000000" stroke-opacity="1" stroke-width="1" stroke-linecap="square" stroke-linejoin="bevel" transform="matrix(1,0,0,1,0,0)"
font-family="Sans Serif" font-size="9" font-weight="400" font-style="normal" 
>
</g>
</g>
</svg>
